<svg width="23" height="22" viewBox="0 0 23 22" fill="none" xmlns="http://www.w3.org/2000/svg">
<path d="M0 5.27344V2.14844C0 0.960938 0.960938 0 2.14844 0H5.27344C5.59375 0 5.85938 0.265625 5.85938 0.585938C5.85938 0.90625 5.59375 1.17188 5.27344 1.17188H2.14844C1.60938 1.17188 1.17188 1.60938 1.17188 2.14844V5.27344C1.17188 5.59375 0.90625 5.85938 0.585938 5.85938C0.265625 5.85938 0 5.59375 0 5.27344ZM20.3359 0H17.2109C16.8906 0 16.625 0.265625 16.625 0.585938C16.625 0.90625 16.8906 1.17188 17.2109 1.17188H20.3359C20.875 1.17188 21.3125 1.60938 21.3125 2.14844V5.27344C21.3125 5.59375 21.5781 5.85938 21.8984 5.85938C22.2188 5.85938 22.4844 5.59375 22.4844 5.27344V2.14844C22.4844 0.960938 21.5234 0 20.3359 0ZM21.8984 15.625C21.5781 15.625 21.3125 15.8906 21.3125 16.2109V19.3359C21.3125 19.875 20.875 20.3125 20.3359 20.3125H17.2109C16.8906 20.3125 16.625 20.5781 16.625 20.8984C16.625 21.2188 16.8906 21.4844 17.2109 21.4844H20.3359C21.5234 21.4844 22.4844 20.5234 22.4844 19.3359V16.2109C22.4844 15.8906 22.2188 15.625 21.8984 15.625ZM5.27344 20.3125H2.14844C1.60938 20.3125 1.17188 19.875 1.17188 19.3359V16.2109C1.17188 15.8906 0.90625 15.625 0.585938 15.625C0.265625 15.625 0 15.8906 0 16.2109V19.3359C0 20.5234 0.960938 21.4844 2.14844 21.4844H5.27344C5.59375 21.4844 5.85938 21.2188 5.85938 20.8984C5.85938 20.5781 5.59375 20.3125 5.27344 20.3125Z" fill="#E12426"/>
<path d="M10.125 13.7501C9.964 13.7501 9.83333 13.6194 9.83333 13.4584C9.83333 12.654 9.17883 12.0001 8.375 12.0001C7.57117 12.0001 6.91667 12.654 6.91667 13.4584C6.91667 13.6194 6.786 13.7501 6.625 13.7501C6.464 13.7501 6.33333 13.6194 6.33333 13.4584C6.33333 12.3326 7.24917 11.4167 8.375 11.4167C9.50083 11.4167 10.4167 12.3326 10.4167 13.4584C10.4167 13.6194 10.286 13.7501 10.125 13.7501ZM9.83333 9.37506C9.83333 8.57123 9.17883 7.91673 8.375 7.91673C7.57117 7.91673 6.91667 8.57123 6.91667 9.37506C6.91667 10.1789 7.57117 10.8334 8.375 10.8334C9.17883 10.8334 9.83333 10.1789 9.83333 9.37506ZM9.25 9.37506C9.25 9.85748 8.85742 10.2501 8.375 10.2501C7.89258 10.2501 7.5 9.85748 7.5 9.37506C7.5 8.89264 7.89258 8.50006 8.375 8.50006C8.85742 8.50006 9.25 8.89264 9.25 9.37506ZM18 14.0417V7.62506C18 6.17781 16.8222 5.00006 15.375 5.00006H6.625C5.17775 5.00006 4 6.17781 4 7.62506V14.0417C4 15.489 5.17775 16.6667 6.625 16.6667H15.375C16.8222 16.6667 18 15.489 18 14.0417ZM15.375 5.58339C16.5008 5.58339 17.4167 6.49923 17.4167 7.62506V14.0417C17.4167 15.1676 16.5008 16.0834 15.375 16.0834H6.625C5.49917 16.0834 4.58333 15.1676 4.58333 14.0417V7.62506C4.58333 6.49923 5.49917 5.58339 6.625 5.58339H15.375ZM15.6667 8.79173C15.6667 8.63073 15.536 8.50006 15.375 8.50006H11.875C11.714 8.50006 11.5833 8.63073 11.5833 8.79173C11.5833 8.95273 11.714 9.08339 11.875 9.08339H15.375C15.536 9.08339 15.6667 8.95273 15.6667 8.79173ZM15.6667 11.1251C15.6667 10.9641 15.536 10.8334 15.375 10.8334H11.875C11.714 10.8334 11.5833 10.9641 11.5833 11.1251C11.5833 11.2861 11.714 11.4167 11.875 11.4167H15.375C15.536 11.4167 15.6667 11.2861 15.6667 11.1251ZM14.5 13.4584C14.5 13.2974 14.3693 13.1667 14.2083 13.1667H11.875C11.714 13.1667 11.5833 13.2974 11.5833 13.4584C11.5833 13.6194 11.714 13.7501 11.875 13.7501H14.2083C14.3693 13.7501 14.5 13.6194 14.5 13.4584Z" fill="#E12426"/>
</svg>
