<svg width="26" height="26" viewBox="0 0 26 26" fill="none" xmlns="http://www.w3.org/2000/svg">
<path fill-rule="evenodd" clip-rule="evenodd" d="M17.4688 23.5625C17.4688 24.0112 17.8325 24.375 18.2812 24.375C18.73 24.375 19.0938 24.0112 19.0938 23.5625V21.125H21.125C23.3686 21.125 25.1875 19.3062 25.1875 17.0625V8.9375C25.1875 6.69386 23.3687 4.875 21.125 4.875H19.0938V2.4375C19.0938 1.98877 18.73 1.625 18.2812 1.625C17.8325 1.625 17.4688 1.98877 17.4688 2.4375V23.5625ZM19.0938 6.5V19.5H21.125C22.4712 19.5 23.5625 18.4087 23.5625 17.0625V8.9375C23.5625 7.59131 22.4712 6.5 21.125 6.5H19.0938Z" fill="#E12426"/>
<path d="M15.8438 19.5V21.125H4.875C2.63134 21.125 0.8125 19.3062 0.8125 17.0625V8.9375C0.8125 6.69386 2.63134 4.875 4.875 4.875H15.8438V6.5H4.875C3.52881 6.5 2.4375 7.59131 2.4375 8.9375V17.0625C2.4375 18.4087 3.52881 19.5 4.875 19.5H15.8438Z" fill="#E12426"/>
<path d="M4.19905 8.89305C4.44796 8.51967 4.9524 8.4188 5.32578 8.66771L6.95391 9.75313C8.40113 10.7179 8.40113 12.8446 6.95391 13.8094L5.32578 14.8948C4.9524 15.1437 4.44796 15.0428 4.19905 14.6694C3.95013 14.2961 4.05103 13.7916 4.42439 13.5427L6.05252 12.4573C6.53494 12.1357 6.53494 11.4268 6.05252 11.1052L4.42439 10.0198C4.05103 9.77088 3.95013 9.26644 4.19905 8.89305Z" fill="#E12426"/>
<path d="M13 17.0625C13.4487 17.0625 13.8125 16.6987 13.8125 16.25C13.8125 15.8013 13.4487 15.4375 13 15.4375H8.125C7.67626 15.4375 7.3125 15.8013 7.3125 16.25C7.3125 16.6987 7.67626 17.0625 8.125 17.0625H13Z" fill="#E12426"/>
</svg>
