<svg width="22" height="22" viewBox="0 0 22 22" fill="none" xmlns="http://www.w3.org/2000/svg">
<path d="M0 5.27344V2.14844C0 0.960938 0.960938 0 2.14844 0H5.27344C5.59375 0 5.85938 0.265625 5.85938 0.585938C5.85938 0.90625 5.59375 1.17188 5.27344 1.17188H2.14844C1.60938 1.17188 1.17188 1.60938 1.17188 2.14844V5.27344C1.17188 5.59375 0.90625 5.85938 0.585938 5.85938C0.265625 5.85938 0 5.59375 0 5.27344ZM19.3359 0H16.2109C15.8906 0 15.625 0.265625 15.625 0.585938C15.625 0.90625 15.8906 1.17188 16.2109 1.17188H19.3359C19.875 1.17188 20.3125 1.60938 20.3125 2.14844V5.27344C20.3125 5.59375 20.5781 5.85938 20.8984 5.85938C21.2188 5.85938 21.4844 5.59375 21.4844 5.27344V2.14844C21.4844 0.960938 20.5234 0 19.3359 0ZM20.8984 15.625C20.5781 15.625 20.3125 15.8906 20.3125 16.2109V19.3359C20.3125 19.875 19.875 20.3125 19.3359 20.3125H16.2109C15.8906 20.3125 15.625 20.5781 15.625 20.8984C15.625 21.2188 15.8906 21.4844 16.2109 21.4844H19.3359C20.5234 21.4844 21.4844 20.5234 21.4844 19.3359V16.2109C21.4844 15.8906 21.2188 15.625 20.8984 15.625ZM5.27344 20.3125H2.14844C1.60938 20.3125 1.17188 19.875 1.17188 19.3359V16.2109C1.17188 15.8906 0.90625 15.625 0.585938 15.625C0.265625 15.625 0 15.8906 0 16.2109V19.3359C0 20.5234 0.960938 21.4844 2.14844 21.4844H5.27344C5.59375 21.4844 5.85938 21.2188 5.85938 20.8984C5.85938 20.5781 5.59375 20.3125 5.27344 20.3125Z" fill="#E12426"/>
<path d="M7.65625 4H6.03125C4.91163 4 4 4.91163 4 6.03125V7.65625C4 8.77588 4.91163 9.6875 6.03125 9.6875H7.65625C8.77588 9.6875 9.6875 8.77588 9.6875 7.65625V6.03125C9.6875 4.91163 8.77588 4 7.65625 4ZM8.0625 7.65625C8.0625 7.8805 7.8805 8.0625 7.65625 8.0625H6.03125C5.807 8.0625 5.625 7.8805 5.625 7.65625V6.03125C5.625 5.807 5.807 5.625 6.03125 5.625H7.65625C7.8805 5.625 8.0625 5.807 8.0625 6.03125V7.65625ZM13.3438 9.6875H14.9688C16.0884 9.6875 17 8.77588 17 7.65625V6.03125C17 4.91163 16.0884 4 14.9688 4H13.3438C12.2241 4 11.3125 4.91163 11.3125 6.03125V7.65625C11.3125 8.77588 12.2241 9.6875 13.3438 9.6875ZM12.9375 6.03125C12.9375 5.807 13.1195 5.625 13.3438 5.625H14.9688C15.193 5.625 15.375 5.807 15.375 6.03125V7.65625C15.375 7.8805 15.193 8.0625 14.9688 8.0625H13.3438C13.1195 8.0625 12.9375 7.8805 12.9375 7.65625V6.03125ZM7.65625 11.3125H6.03125C4.91163 11.3125 4 12.2241 4 13.3438V14.9688C4 16.0884 4.91163 17 6.03125 17H7.65625C8.77588 17 9.6875 16.0884 9.6875 14.9688V13.3438C9.6875 12.2241 8.77588 11.3125 7.65625 11.3125ZM8.0625 14.9688C8.0625 15.193 7.8805 15.375 7.65625 15.375H6.03125C5.807 15.375 5.625 15.193 5.625 14.9688V13.3438C5.625 13.1195 5.807 12.9375 6.03125 12.9375H7.65625C7.8805 12.9375 8.0625 13.1195 8.0625 13.3438V14.9688ZM13.75 15.7812C13.75 16.454 13.204 17 12.5312 17C11.8585 17 11.3125 16.454 11.3125 15.7812C11.3125 15.1085 11.8585 14.5625 12.5312 14.5625C13.204 14.5625 13.75 15.1085 13.75 15.7812ZM15.7812 11.3125C16.454 11.3125 17 11.8585 17 12.5312C17 13.204 16.454 13.75 15.7812 13.75C15.1085 13.75 14.5625 13.204 14.5625 12.5312C14.5625 11.8585 15.1085 11.3125 15.7812 11.3125ZM11.3125 12.5312C11.3125 11.8585 11.8585 11.3125 12.5312 11.3125C13.204 11.3125 13.75 11.8585 13.75 12.5312C13.75 13.204 13.204 13.75 12.5312 13.75C11.8585 13.75 11.3125 13.204 11.3125 12.5312Z" fill="#E12426"/>
</svg>
