<svg width="23" height="23" viewBox="0 0 23 23" fill="none" xmlns="http://www.w3.org/2000/svg">
<rect width="23" height="23" fill="#E12426"/>
<path d="M17 7.33333C17 8.07067 16.3854 8.66667 15.625 8.66667H12.875V16.6667C12.875 17.404 12.2604 18 11.5 18C10.7396 18 10.125 17.404 10.125 16.6667V8.66667H7.375C6.61463 8.66667 6 8.07067 6 7.33333C6 6.596 6.61463 6 7.375 6H15.625C16.3854 6 17 6.596 17 7.33333Z" fill="white"/>
<path d="M1 6.27344V3.14844C1 1.96094 1.96094 1 3.14844 1H6.27344C6.59375 1 6.85938 1.26562 6.85938 1.58594C6.85938 1.90625 6.59375 2.17188 6.27344 2.17188H3.14844C2.60938 2.17188 2.17188 2.60938 2.17188 3.14844V6.27344C2.17188 6.59375 1.90625 6.85938 1.58594 6.85938C1.26562 6.85938 1 6.59375 1 6.27344ZM20.3359 1H17.2109C16.8906 1 16.625 1.26562 16.625 1.58594C16.625 1.90625 16.8906 2.17188 17.2109 2.17188H20.3359C20.875 2.17188 21.3125 2.60938 21.3125 3.14844V6.27344C21.3125 6.59375 21.5781 6.85938 21.8984 6.85938C22.2188 6.85938 22.4844 6.59375 22.4844 6.27344V3.14844C22.4844 1.96094 21.5234 1 20.3359 1ZM21.8984 16.625C21.5781 16.625 21.3125 16.8906 21.3125 17.2109V20.3359C21.3125 20.875 20.875 21.3125 20.3359 21.3125H17.2109C16.8906 21.3125 16.625 21.5781 16.625 21.8984C16.625 22.2188 16.8906 22.4844 17.2109 22.4844H20.3359C21.5234 22.4844 22.4844 21.5234 22.4844 20.3359V17.2109C22.4844 16.8906 22.2188 16.625 21.8984 16.625ZM6.27344 21.3125H3.14844C2.60938 21.3125 2.17188 20.875 2.17188 20.3359V17.2109C2.17188 16.8906 1.90625 16.625 1.58594 16.625C1.26562 16.625 1 16.8906 1 17.2109V20.3359C1 21.5234 1.96094 22.4844 3.14844 22.4844H6.27344C6.59375 22.4844 6.85938 22.2188 6.85938 21.8984C6.85938 21.5781 6.59375 21.3125 6.27344 21.3125Z" fill="white"/>
</svg>
