<svg width="18" height="17" viewBox="0 0 18 17" fill="none" xmlns="http://www.w3.org/2000/svg">
<path d="M6.2053 4.82979L8.16275 2.87234V11.0426C8.16275 11.5532 8.50317 11.8936 9.01381 11.8936C9.52445 11.8936 9.86488 11.5532 9.86488 11.0426V2.87234L11.8223 4.82979C12.1627 5.17021 12.6734 5.17021 13.0138 4.82979C13.3542 4.48936 13.3542 3.97872 13.0138 3.6383L9.60956 0.234043C9.52445 0.148936 9.43934 0.0638298 9.35424 0.0638298C9.18402 -0.0212766 8.92871 -0.0212766 8.67339 0.0638298C8.58828 0.0638298 8.50317 0.148936 8.41807 0.234043L5.01381 3.6383C4.67339 3.97872 4.67339 4.48936 5.01381 4.82979C5.35424 5.17021 5.86488 5.17021 6.2053 4.82979ZM16.6734 10.1915C16.1627 10.1915 15.8223 10.5319 15.8223 11.0426V14.4468C15.8223 14.9574 15.4819 15.2979 14.9713 15.2979H3.05637C2.54573 15.2979 2.2053 14.9574 2.2053 14.4468V11.0426C2.2053 10.5319 1.86488 10.1915 1.35424 10.1915C0.843599 10.1915 0.503174 10.5319 0.503174 11.0426V14.4468C0.503174 15.8936 1.60956 17 3.05637 17H14.9713C16.4181 17 17.5245 15.8936 17.5245 14.4468V11.0426C17.5245 10.5319 17.184 10.1915 16.6734 10.1915Z" fill="#E12426"/>
</svg>
