<svg width="18" height="19" viewBox="0 0 18 19" fill="none" xmlns="http://www.w3.org/2000/svg">
<path d="M16.2063 4.38583L13.1525 1.62292C11.9975 0.577917 10.4575 0 8.82125 0H4.875C2.46 0 0.5 1.77333 0.5 3.95833V15.0417C0.5 17.2267 2.46 19 4.875 19H13.625C16.04 19 18 17.2267 18 15.0417V8.30458C18 6.82417 17.3613 5.43083 16.2063 4.38583ZM14.9725 5.50208C15.2525 5.75542 15.4888 6.0325 15.6813 6.33333H11.8837C11.4025 6.33333 11.0087 5.97708 11.0087 5.54167V2.10583C11.3412 2.28 11.6475 2.49375 11.9275 2.74708L14.9812 5.51L14.9725 5.50208ZM16.25 15.0417C16.25 16.3479 15.0688 17.4167 13.625 17.4167H4.875C3.43125 17.4167 2.25 16.3479 2.25 15.0417V3.95833C2.25 2.65208 3.43125 1.58333 4.875 1.58333H8.82125C8.96125 1.58333 9.11 1.58333 9.25 1.59917V5.54167C9.25 6.84792 10.4312 7.91667 11.875 7.91667H16.2325C16.25 8.04333 16.25 8.17 16.25 8.30458V15.0417Z" fill="#FF3B30"/>
</svg>
