<svg width="28" height="20" viewBox="0 0 28 20" fill="none" xmlns="http://www.w3.org/2000/svg">
<path d="M27.3356 1.66428C27.3337 1.66428 27.3319 1.66428 27.3302 1.66428H25.4984V1.03749C25.5083 0.789409 25.3478 0.566453 25.1094 0.497155C23.8377 0.163903 22.5282 -0.00319573 21.2136 4.62813e-05C19.0522 4.62813e-05 16.1074 0.486348 13.9298 2.70172C11.7685 0.464735 8.80206 4.62813e-05 6.64612 4.62813e-05C5.33149 -0.00319573 4.02199 0.163903 2.75031 0.497155C2.51188 0.566453 2.3514 0.789409 2.36127 1.03749V1.65888H0.540335C0.241935 1.65888 0 1.90081 0 2.19921V19.4575C0 19.7559 0.241935 19.9979 0.540335 19.9979C0.633138 19.9976 0.724319 19.9734 0.8051 19.9276C0.859133 19.9006 6.26249 16.945 13.8056 18.8469H13.8866H13.9352C13.9783 18.8521 14.0218 18.8521 14.0649 18.8469C21.6296 16.9288 27.033 19.879 27.0654 19.9276C27.2326 20.0241 27.4386 20.0241 27.6057 19.9276C27.7719 19.8317 27.8748 19.6548 27.8759 19.4629V2.20461C27.8759 1.90621 27.634 1.66428 27.3356 1.66428ZM1.08067 18.5984V2.74495H2.37207V16.2966C2.36869 16.595 2.60786 16.8396 2.90626 16.843C2.93544 16.8433 2.96462 16.8413 2.99346 16.8369C4.11128 16.6662 5.23983 16.5759 6.37055 16.5667C7.93685 16.5396 9.4966 16.7752 10.985 17.2638C7.62379 16.8573 4.21441 17.3167 1.08067 18.5984ZM6.37055 15.4915C5.38775 15.4937 4.4061 15.5568 3.43113 15.6806V1.46435C4.48316 1.22998 5.55748 1.11037 6.63532 1.10773C8.65617 1.10773 11.4443 1.57242 13.3787 3.75538L13.3949 17.2151C12.271 16.4803 10.0773 15.4915 6.37055 15.4915ZM14.4756 3.75538C16.41 1.59404 19.1981 1.10773 21.219 1.10773C22.2967 1.11091 23.3711 1.23046 24.4232 1.46435V15.6806C23.4537 15.5557 22.4774 15.4907 21.4999 15.4861C17.8149 15.4861 15.6157 16.4749 14.4756 17.2097V3.75538ZM26.7898 18.5984C23.6494 17.3132 20.2322 16.8537 16.8639 17.2638C18.3593 16.7734 19.9265 16.5378 21.4999 16.5667C22.6378 16.5731 23.7736 16.6616 24.8987 16.8315C25.1937 16.8763 25.4692 16.6734 25.514 16.3784C25.5183 16.3495 25.5204 16.3203 25.52 16.2912V2.74495H26.8114L26.7898 18.5984Z" fill="#E12426"/>
</svg>
