<svg width="24" height="18" viewBox="0 0 24 18" fill="none" xmlns="http://www.w3.org/2000/svg">
<path d="M3.5 13C2.67157 13 2 13.6716 2 14.5C2 15.3284 2.67157 16 3.5 16C4.32843 16 5 15.3284 5 14.5C5 13.6716 4.32843 13 3.5 13ZM2 8.44043H13C13.2761 8.44043 13.5 8.66429 13.5 8.94043C13.5 9.21657 13.2761 9.44043 13 9.44043H2C1.72386 9.44043 1.5 9.21657 1.5 8.94043C1.5 8.66429 1.72386 8.44043 2 8.44043ZM22.5 9.23633L22.1709 9.11719L1.44531 1.58203L1.78809 0.640625L23.0732 8.38184L23.0742 8.38379L23.1777 8.42383C23.3688 8.49654 23.5 8.6763 23.5 8.8877V15.8877C23.5 16.7196 22.8319 17.3877 22 17.3877H2C1.16814 17.3877 0.5 16.7196 0.5 15.8877V12.8877C0.5 12.0558 1.16814 11.3877 2 11.3877H22.5V9.23633Z" stroke="#DDDDDD"/>
</svg>
