<svg width="25" height="25" viewBox="0 0 25 25" fill="none" xmlns="http://www.w3.org/2000/svg">
<path d="M1.75781 7.03125V3.90625C1.75781 2.71875 2.71875 1.75781 3.90625 1.75781H7.03125C7.35156 1.75781 7.61719 2.02344 7.61719 2.34375C7.61719 2.66406 7.35156 2.92969 7.03125 2.92969H3.90625C3.36719 2.92969 2.92969 3.36719 2.92969 3.90625V7.03125C2.92969 7.35156 2.66406 7.61719 2.34375 7.61719C2.02344 7.61719 1.75781 7.35156 1.75781 7.03125ZM21.0938 1.75781H17.9688C17.6484 1.75781 17.3828 2.02344 17.3828 2.34375C17.3828 2.66406 17.6484 2.92969 17.9688 2.92969H21.0938C21.6328 2.92969 22.0703 3.36719 22.0703 3.90625V7.03125C22.0703 7.35156 22.3359 7.61719 22.6562 7.61719C22.9766 7.61719 23.2422 7.35156 23.2422 7.03125V3.90625C23.2422 2.71875 22.2812 1.75781 21.0938 1.75781ZM22.6562 17.3828C22.3359 17.3828 22.0703 17.6484 22.0703 17.9688V21.0938C22.0703 21.6328 21.6328 22.0703 21.0938 22.0703H17.9688C17.6484 22.0703 17.3828 22.3359 17.3828 22.6562C17.3828 22.9766 17.6484 23.2422 17.9688 23.2422H21.0938C22.2812 23.2422 23.2422 22.2812 23.2422 21.0938V17.9688C23.2422 17.6484 22.9766 17.3828 22.6562 17.3828ZM7.03125 22.0703H3.90625C3.36719 22.0703 2.92969 21.6328 2.92969 21.0938V17.9688C2.92969 17.6484 2.66406 17.3828 2.34375 17.3828C2.02344 17.3828 1.75781 17.6484 1.75781 17.9688V21.0938C1.75781 22.2812 2.71875 23.2422 3.90625 23.2422H7.03125C7.35156 23.2422 7.61719 22.9766 7.61719 22.6562C7.61719 22.3359 7.35156 22.0703 7.03125 22.0703ZM16.4062 20.1172H8.59375C7.40625 20.1172 6.44531 19.1562 6.44531 17.9688V13.0859H3.90625C3.58594 13.0859 3.32031 12.8203 3.32031 12.5C3.32031 12.1797 3.58594 11.9141 3.90625 11.9141H6.44531V7.03125C6.44531 5.84375 7.40625 4.88281 8.59375 4.88281H14.8438C15 4.88281 15.1484 4.94531 15.2578 5.05469L18.3828 8.17969C18.4922 8.28906 18.5547 8.4375 18.5547 8.59375V11.9141H21.0938C21.4141 11.9141 21.6797 12.1797 21.6797 12.5C21.6797 12.8203 21.4141 13.0859 21.0938 13.0859H18.5547V17.9688C18.5547 19.1562 17.5938 20.1172 16.4062 20.1172ZM15.4297 7.8125C15.4297 7.92188 15.5156 8.00781 15.625 8.00781H16.5547L15.4297 6.88281V7.8125ZM7.61719 11.9141H17.3828V9.17969H15.625C14.875 9.17969 14.2578 8.5625 14.2578 7.8125V6.05469H8.59375C8.05469 6.05469 7.61719 6.49219 7.61719 7.03125V11.9141ZM17.3828 17.9688V13.0859H7.61719V17.9688C7.61719 18.5078 8.05469 18.9453 8.59375 18.9453H16.4062C16.9453 18.9453 17.3828 18.5078 17.3828 17.9688Z" fill="#E12426"/>
</svg>
