<svg width="18" height="18" viewBox="0 0 18 18" fill="none" xmlns="http://www.w3.org/2000/svg">
<g clip-path="url(#clip0_950_113)">
<path d="M0.879 14.3393C0.316352 14.9017 0.000169912 15.6647 0 16.4603L0 18H1.53975C2.33533 17.9998 3.09827 17.6836 3.66075 17.121L13.668 7.11375L10.8863 4.332L0.879 14.3393Z" fill="#E12426"/>
<path d="M17.3588 0.641244C17.1761 0.458421 16.9593 0.313386 16.7205 0.214432C16.4818 0.115478 16.2259 0.0645447 15.9675 0.0645447C15.7091 0.0645447 15.4532 0.115478 15.2145 0.214432C14.9758 0.313386 14.7589 0.458421 14.5763 0.641244L11.9468 3.27149L14.7285 6.05324L17.3588 3.42374C17.5416 3.24111 17.6866 3.02423 17.7856 2.78551C17.8845 2.54679 17.9355 2.29091 17.9355 2.03249C17.9355 1.77408 17.8845 1.51819 17.7856 1.27947C17.6866 1.04075 17.5416 0.823877 17.3588 0.641244Z" fill="#E12426"/>
</g>
<defs>
<clipPath id="clip0_950_113">
<rect width="18" height="18" fill="white"/>
</clipPath>
</defs>
</svg>
