<svg width="24" height="24" viewBox="0 0 24 24" fill="none" xmlns="http://www.w3.org/2000/svg">
<path d="M14.3213 0C15.9575 8.99849e-06 17.4974 0.578067 18.6523 1.62305L21.7061 4.38574C22.8611 5.43074 23.5 6.82427 23.5 8.30469V15.042C23.4998 17.189 21.6071 18.9371 19.25 18.9971V17.4102C20.6361 17.3505 21.7498 16.3101 21.75 15.042V8.30469C21.75 8.17021 21.7499 8.04356 21.7324 7.91699H17.375C15.9314 7.91699 14.7502 6.84809 14.75 5.54199V1.59961C14.61 1.58378 14.4613 1.58301 14.3213 1.58301H10.375C8.93137 1.58301 7.7502 2.65191 7.75 3.95801C7.75 3.97191 7.75 3.98613 7.75 4H6C6 3.98612 6 3.97191 6 3.95801C6.0002 1.77316 7.96012 4.32943e-07 10.375 0H14.3213ZM16.5088 5.54199C16.509 5.97726 16.9027 6.33301 17.3838 6.33301H21.1816C20.9892 6.0322 20.7526 5.75527 20.4727 5.50195L20.4814 5.50977L17.4277 2.74707C17.1477 2.49374 16.8413 2.27964 16.5088 2.10547V5.54199Z" fill="#FF3B30"/>
<path d="M15.7063 9.38583L12.6525 6.62292C11.4975 5.57792 9.9575 5 8.32125 5H4.375C1.96 5 0 6.77333 0 8.95833V20.0417C0 22.2267 1.96 24 4.375 24H13.125C15.54 24 17.5 22.2267 17.5 20.0417V13.3046C17.5 11.8242 16.8613 10.4308 15.7063 9.38583ZM14.4725 10.5021C14.7525 10.7554 14.9888 11.0325 15.1813 11.3333H11.3837C10.9025 11.3333 10.5087 10.9771 10.5087 10.5417V7.10583C10.8412 7.28 11.1475 7.49375 11.4275 7.74708L14.4812 10.51L14.4725 10.5021ZM15.75 20.0417C15.75 21.3479 14.5688 22.4167 13.125 22.4167H4.375C2.93125 22.4167 1.75 21.3479 1.75 20.0417V8.95833C1.75 7.65208 2.93125 6.58333 4.375 6.58333H8.32125C8.46125 6.58333 8.61 6.58333 8.75 6.59917V10.5417C8.75 11.8479 9.93125 12.9167 11.375 12.9167H15.7325C15.75 13.0433 15.75 13.17 15.75 13.3046V20.0417Z" fill="#FF3B30"/>
</svg>
