<svg width="22" height="22" viewBox="0 0 22 22" fill="none" xmlns="http://www.w3.org/2000/svg">
<path d="M14.3333 16C14.3333 16.184 14.1839 16.3333 13.9999 16.3333H7.99992C7.81592 16.3333 7.66659 16.184 7.66659 16C7.66659 15.816 7.81592 15.6667 7.99992 15.6667H13.9999C14.1839 15.6667 14.3333 15.816 14.3333 16ZM17.6666 6V16C17.6666 17.654 16.3206 19 14.6666 19H7.33325C5.67925 19 4.33325 17.654 4.33325 16V6C4.33325 4.346 5.67925 3 7.33325 3H14.6666C16.3206 3 17.6666 4.346 17.6666 6ZM16.9999 6C16.9999 4.71333 15.9533 3.66667 14.6666 3.66667H7.33325C6.04659 3.66667 4.99992 4.71333 4.99992 6V16C4.99992 17.2867 6.04659 18.3333 7.33325 18.3333H14.6666C15.9533 18.3333 16.9999 17.2867 16.9999 16V6ZM14.9486 10C14.9486 12.206 13.1546 14 10.9486 14C8.74259 14 6.94859 12.206 6.94859 10C6.94859 7.794 8.74259 6 10.9486 6C13.1546 6 14.9486 7.794 14.9486 10ZM12.2633 6.93733C12.6499 7.59467 12.9006 8.55333 12.9419 9.66667H14.2646C14.1419 8.43933 13.3513 7.406 12.2626 6.93733H12.2633ZM12.2746 10.3333H9.62259C9.69859 12.0713 10.3566 13.3333 10.9486 13.3333C11.5406 13.3333 12.1986 12.0713 12.2746 10.3333ZM12.2746 9.66667C12.1986 7.92867 11.5406 6.66667 10.9486 6.66667C10.3566 6.66667 9.69859 7.92867 9.62259 9.66667H12.2746ZM7.63192 9.66667H8.95459C8.99659 8.55267 9.24725 7.59467 9.63325 6.93733C8.54459 7.40667 7.75459 8.44 7.63192 9.66667ZM9.63392 13.0627C9.24725 12.4053 8.99659 11.4467 8.95525 10.3333H7.63259C7.75525 11.5607 8.54525 12.594 9.63392 13.0627ZM14.2653 10.3333H12.9426C12.9006 11.4473 12.6499 12.4053 12.2639 13.0627C13.3526 12.5933 14.1426 11.56 14.2653 10.3333Z" fill="#E12426"/>
<path d="M0 5.27344V2.14844C0 0.960938 0.960938 0 2.14844 0H5.27344C5.59375 0 5.85938 0.265625 5.85938 0.585938C5.85938 0.90625 5.59375 1.17188 5.27344 1.17188H2.14844C1.60938 1.17188 1.17188 1.60938 1.17188 2.14844V5.27344C1.17188 5.59375 0.90625 5.85938 0.585938 5.85938C0.265625 5.85938 0 5.59375 0 5.27344ZM19.3359 0H16.2109C15.8906 0 15.625 0.265625 15.625 0.585938C15.625 0.90625 15.8906 1.17188 16.2109 1.17188H19.3359C19.875 1.17188 20.3125 1.60938 20.3125 2.14844V5.27344C20.3125 5.59375 20.5781 5.85938 20.8984 5.85938C21.2188 5.85938 21.4844 5.59375 21.4844 5.27344V2.14844C21.4844 0.960938 20.5234 0 19.3359 0ZM20.8984 15.625C20.5781 15.625 20.3125 15.8906 20.3125 16.2109V19.3359C20.3125 19.875 19.875 20.3125 19.3359 20.3125H16.2109C15.8906 20.3125 15.625 20.5781 15.625 20.8984C15.625 21.2188 15.8906 21.4844 16.2109 21.4844H19.3359C20.5234 21.4844 21.4844 20.5234 21.4844 19.3359V16.2109C21.4844 15.8906 21.2188 15.625 20.8984 15.625ZM5.27344 20.3125H2.14844C1.60938 20.3125 1.17188 19.875 1.17188 19.3359V16.2109C1.17188 15.8906 0.90625 15.625 0.585938 15.625C0.265625 15.625 0 15.8906 0 16.2109V19.3359C0 20.5234 0.960938 21.4844 2.14844 21.4844H5.27344C5.59375 21.4844 5.85938 21.2188 5.85938 20.8984C5.85938 20.5781 5.59375 20.3125 5.27344 20.3125Z" fill="#E12426"/>
</svg>
