<svg width="24" height="20" viewBox="0 0 24 20" fill="none" xmlns="http://www.w3.org/2000/svg">
<path fill-rule="evenodd" clip-rule="evenodd" d="M23.5 17V5C23.5 4.337 23.2365 3.70099 22.768 3.23199C22.299 2.76349 21.663 2.5 21 2.5H12.309L12 1.882C11.5765 1.035 10.711 0.5 9.76401 0.5H3C1.6195 0.5 0.5 1.6195 0.5 3V17C0.5 18.3805 1.6195 19.5 3 19.5H21C21.663 19.5 22.299 19.2365 22.768 18.768C23.2365 18.299 23.5 17.663 23.5 17ZM22.5 7V17C22.5 17.398 22.342 17.7795 22.0605 18.0605C21.7795 18.342 21.398 18.5 21 18.5C16.8165 18.5 7.1835 18.5 3 18.5C2.1715 18.5 1.5 17.8285 1.5 17V3C1.5 2.1715 2.1715 1.5 3 1.5H9.76401C10.332 1.5 10.8515 1.82099 11.1055 2.32899L12.553 5.2235C12.6375 5.393 12.8105 5.5 13 5.5H21C21.398 5.5 21.7795 5.658 22.0605 5.9395C22.342 6.2205 22.5 6.602 22.5 7ZM12.809 3.5L13.309 4.5H21C21.544 4.5 22.07 4.6775 22.5 5C22.5 4.602 22.342 4.2205 22.0605 3.9395C21.7795 3.658 21.398 3.5 21 3.5H12.809Z" fill="#E12426"/>
</svg>
