<?xml version="1.0" standalone="no"?>
<!DOCTYPE svg PUBLIC "-//W3C//DTD SVG 20010904//EN"
 "http://www.w3.org/TR/2001/REC-SVG-20010904/DTD/svg10.dtd">
<svg version="1.0" xmlns="http://www.w3.org/2000/svg"
 width="512.000000pt" height="512.000000pt" viewBox="0 0 512.000000 512.000000"
 preserveAspectRatio="xMidYMid meet">

<g transform="translate(0.000000,512.000000) scale(0.100000,-0.100000)"
fill="#E12426" stroke="none">
<path d="M866 4675 c-103 -21 -161 -42 -266 -96 -364 -187 -600 -564 -600
-958 1 -490 272 -1316 641 -1946 82 -141 217 -348 271 -417 l30 -38 -20 -27
c-26 -35 -221 -226 -287 -280 -142 -115 -326 -214 -485 -258 -72 -20 -102 -34
-122 -56 -62 -65 -12 -169 80 -169 51 0 206 51 319 105 199 95 357 210 541
392 l113 112 132 -132 c271 -272 541 -430 798 -468 98 -14 272 -7 379 16 241
51 489 180 680 354 l65 59 90 -92 c227 -229 431 -330 692 -343 422 -21 768
150 996 494 97 146 213 422 202 480 -8 45 -56 83 -104 83 -58 0 -84 -27 -121
-127 -77 -206 -174 -368 -289 -483 -127 -126 -271 -197 -460 -225 -250 -38
-424 0 -610 132 -71 51 -241 218 -241 236 0 7 34 57 75 112 255 343 443 807
470 1165 15 188 -53 357 -199 500 -148 145 -341 209 -531 176 -248 -42 -474
-250 -530 -487 -41 -175 9 -499 130 -834 55 -152 180 -415 253 -532 l51 -82
-76 -70 c-263 -246 -633 -373 -926 -317 -228 44 -482 213 -721 480 l-67 76 44
57 c383 502 715 1283 834 1961 23 136 27 184 27 362 0 195 -1 209 -27 293 -96
311 -321 572 -610 707 -147 69 -242 92 -407 96 -100 2 -166 -1 -214 -11z m394
-225 c291 -83 560 -352 635 -635 100 -378 -140 -1274 -531 -1983 -85 -153
-274 -443 -285 -437 -14 9 -134 191 -216 328 -402 672 -698 1587 -644 1992 49
365 333 674 691 750 90 20 254 12 350 -15z m2067 -1701 c74 -28 126 -63 186
-128 74 -79 101 -146 105 -261 10 -268 -165 -729 -404 -1070 l-58 -81 -29 47
c-132 212 -276 585 -326 845 -34 176 -37 275 -13 356 32 105 100 190 206 257
91 58 232 72 333 35z"/>
<path d="M4530 3178 c-24 -16 -38 -35 -45 -62 -11 -45 -7 -51 103 -207 116
-165 234 -413 307 -645 28 -92 53 -120 112 -130 39 -6 45 -4 78 29 25 25 35
44 35 66 0 74 -131 414 -227 589 -59 110 -193 309 -230 345 -42 39 -89 45
-133 15z"/>
</g>
</svg>
