<svg width="22" height="22" viewBox="0 0 22 22" fill="none" xmlns="http://www.w3.org/2000/svg">
<path d="M13.5882 11.9645C13.5882 13.5692 12.2877 14.8763 10.6765 14.8763C9.07177 14.8763 7.76471 13.5692 7.76471 11.9645C7.76471 10.3598 9.07177 9.05273 10.6765 9.05273C12.2877 9.05273 13.5882 10.3598 13.5882 11.9645Z" fill="white"/>
<path d="M19.0882 4.52956H15.2577L14.8306 3.24838C14.7012 2.85367 14.3324 2.58838 13.9118 2.58838H7.44118C7.02059 2.58838 6.65177 2.85367 6.52236 3.24838L6.0953 4.52956H2.91177C1.66295 4.52956 0.647064 5.54544 0.647064 6.79426V17.1472C0.647064 18.396 1.66295 19.4119 2.91177 19.4119H19.0882C20.3371 19.4119 21.3529 18.396 21.3529 17.1472V6.79426C21.3529 5.54544 20.3371 4.52956 19.0882 4.52956ZM10.6765 16.8172C8.00412 16.8172 5.82353 14.6431 5.82353 11.9643C5.82353 9.29191 8.00412 7.11132 10.6765 7.11132C13.3553 7.11132 15.5294 9.29191 15.5294 11.9643C15.5294 14.6431 13.3553 16.8172 10.6765 16.8172ZM18.4865 8.76779C18.0872 9.15279 17.4945 9.1405 17.1082 8.76779C16.7304 8.37567 16.7459 7.77197 17.1082 7.39603C17.4706 7.03367 18.1241 7.03367 18.4865 7.39603C18.8585 7.76809 18.8728 8.3815 18.4865 8.76779Z" fill="white"/>
</svg>
