<svg width="17" height="19" viewBox="0 0 17 19" fill="none" xmlns="http://www.w3.org/2000/svg">
<path d="M14.9583 4.38583L12.05 1.62292C10.95 0.577917 9.48333 0 7.925 0H4.16667C1.86667 0 0 1.77333 0 3.95833V15.0417C0 17.2267 1.86667 19 4.16667 19H12.5C14.8 19 16.6667 17.2267 16.6667 15.0417V8.30458C16.6667 6.82417 16.0583 5.43083 14.9583 4.38583ZM13.7833 5.50208C14.05 5.75542 14.275 6.0325 14.4583 6.33333H10.8417C10.3833 6.33333 10.0083 5.97708 10.0083 5.54167V2.10583C10.325 2.28 10.6167 2.49375 10.8833 2.74708L13.7917 5.51L13.7833 5.50208ZM15 15.0417C15 16.3479 13.875 17.4167 12.5 17.4167H4.16667C2.79167 17.4167 1.66667 16.3479 1.66667 15.0417V3.95833C1.66667 2.65208 2.79167 1.58333 4.16667 1.58333H7.925C8.05833 1.58333 8.2 1.58333 8.33333 1.59917V5.54167C8.33333 6.84792 9.45833 7.91667 10.8333 7.91667H14.9833C15 8.04333 15 8.17 15 8.30458V15.0417ZM4.24167 10.2917H3.33333C2.875 10.2917 2.5 10.6479 2.5 11.0833V14.5983C2.5 14.8754 2.73333 15.0892 3.01667 15.0892C3.3 15.0892 3.53333 14.8675 3.53333 14.5983V13.6325H4.23333C5.21667 13.6325 6.01667 12.8804 6.01667 11.9621C6.01667 11.0437 5.21667 10.2917 4.23333 10.2917H4.24167ZM4.24167 12.6429H3.55V11.2812H4.25C4.65 11.2812 4.99167 11.59 4.99167 11.9621C4.99167 12.3342 4.65 12.6429 4.25 12.6429H4.24167ZM14.1833 10.7904C14.1833 11.0675 13.95 11.2812 13.6667 11.2812H12.2583V12.1838H13.2917C13.5833 12.1838 13.8083 12.4054 13.8083 12.6746C13.8083 12.9438 13.575 13.1654 13.2917 13.1654H12.2583V14.5904C12.2583 14.8675 12.025 15.0813 11.7417 15.0813C11.4583 15.0813 11.225 14.8596 11.225 14.5904V10.7825C11.225 10.5054 11.4583 10.2917 11.7417 10.2917H13.6667C13.9583 10.2917 14.1833 10.5133 14.1833 10.7825V10.7904ZM8.40833 10.2996H7.5C7.04167 10.2996 6.66667 10.6558 6.66667 11.0913V14.6063C6.66667 14.8833 6.9 15.0496 7.18333 15.0496C7.46667 15.0496 8.4 15.0496 8.4 15.0496C9.38333 15.0496 10.1833 14.2975 10.1833 13.3792V11.97C10.1833 11.0517 9.38333 10.2996 8.4 10.2996H8.40833ZM9.15 13.3792C9.15 13.7513 8.80833 14.06 8.40833 14.06H7.71667V11.2892H8.41667C8.81667 11.2892 9.15833 11.5979 9.15833 11.97V13.3792H9.15Z" fill="#FF3B30"/>
</svg>
