<svg width="18" height="19" viewBox="0 0 18 19" fill="none" xmlns="http://www.w3.org/2000/svg">
<path d="M15.625 4.38583L12.7166 1.62292C11.6166 0.577917 10.15 0 8.59163 0H4.83329C2.53329 0 0.666626 1.77333 0.666626 3.95833V15.0417C0.666626 17.2267 2.53329 19 4.83329 19H13.1666C15.4666 19 17.3333 17.2267 17.3333 15.0417V8.30458C17.3333 6.82417 16.725 5.43083 15.625 4.38583ZM14.45 5.50208C14.7166 5.75542 14.9416 6.0325 15.125 6.33333H11.5083C11.05 6.33333 10.675 5.97708 10.675 5.54167V2.10583C10.9916 2.28 11.2833 2.49375 11.55 2.74708L14.4583 5.51L14.45 5.50208ZM15.6666 15.0417C15.6666 16.3479 14.5416 17.4167 13.1666 17.4167H4.83329C3.45829 17.4167 2.33329 16.3479 2.33329 15.0417V3.95833C2.33329 2.65208 3.45829 1.58333 4.83329 1.58333H8.59163C8.72496 1.58333 8.86663 1.58333 8.99996 1.59917V5.54167C8.99996 6.84792 10.125 7.91667 11.5 7.91667H15.65C15.6666 8.04333 15.6666 8.17 15.6666 8.30458V15.0417Z" fill="#3059FF"/>
</svg>
