<svg width="18" height="19" viewBox="0 0 18 19" fill="none" xmlns="http://www.w3.org/2000/svg">
<path d="M15.7063 4.38583L12.6525 1.62292C11.4975 0.577917 9.9575 0 8.32125 0H4.375C1.96 0 0 1.77333 0 3.95833V15.0417C0 17.2267 1.96 19 4.375 19H13.125C15.54 19 17.5 17.2267 17.5 15.0417V8.30458C17.5 6.82417 16.8613 5.43083 15.7063 4.38583ZM14.4725 5.50208C14.7525 5.75542 14.9888 6.0325 15.1813 6.33333H11.3837C10.9025 6.33333 10.5087 5.97708 10.5087 5.54167V2.10583C10.8412 2.28 11.1475 2.49375 11.4275 2.74708L14.4812 5.51L14.4725 5.50208ZM15.75 15.0417C15.75 16.3479 14.5688 17.4167 13.125 17.4167H4.375C2.93125 17.4167 1.75 16.3479 1.75 15.0417V3.95833C1.75 2.65208 2.93125 1.58333 4.375 1.58333H8.32125C8.46125 1.58333 8.61 1.58333 8.75 1.59917V5.54167C8.75 6.84792 9.93125 7.91667 11.375 7.91667H15.7325C15.75 8.04333 15.75 8.17 15.75 8.30458V15.0417Z" fill="#808080"/>
<path d="M8.4061 15C8.27077 15 8.1751 14.972 8.1191 14.916C8.0631 14.86 8.0351 14.7713 8.0351 14.65V11.262H6.9571C6.82643 11.262 6.73776 11.2363 6.6911 11.185C6.64443 11.129 6.6211 11.0403 6.6211 10.919V10.59C6.6211 10.4687 6.64443 10.38 6.6911 10.324C6.73776 10.268 6.82643 10.24 6.9571 10.24H10.5341C10.6648 10.24 10.7534 10.268 10.8001 10.324C10.8514 10.38 10.8771 10.4687 10.8771 10.59V10.919C10.8771 11.0403 10.8514 11.129 10.8001 11.185C10.7534 11.2363 10.6648 11.262 10.5341 11.262H9.4561V14.65C9.4561 14.7713 9.4281 14.86 9.3721 14.916C9.3161 14.972 9.22043 15 9.0851 15H8.4061Z" fill="#808080"/>
</svg>
