<svg width="19" height="19" viewBox="0 0 19 19" fill="none" xmlns="http://www.w3.org/2000/svg">
<g clip-path="url(#clip0_1045_9136)">
<path d="M15.4375 0H3.5625C2.61799 0.00104771 1.71246 0.376718 1.04459 1.04459C0.376718 1.71246 0.00104771 2.61799 0 3.5625L0 15.4375C0.00104771 16.382 0.376718 17.2875 1.04459 17.9554C1.71246 18.6233 2.61799 18.999 3.5625 19H15.4375C16.382 18.999 17.2875 18.6233 17.9554 17.9554C18.6233 17.2875 18.999 16.382 19 15.4375V3.5625C18.999 2.61799 18.6233 1.71246 17.9554 1.04459C17.2875 0.376718 16.382 0.00104771 15.4375 0ZM3.5625 2.375H15.4375C15.7524 2.375 16.0545 2.50011 16.2772 2.72281C16.4999 2.94551 16.625 3.24756 16.625 3.5625V15.4375C16.6252 15.5934 16.5945 15.7479 16.5347 15.8919C16.475 16.0359 16.3872 16.1667 16.2767 16.2767L9.36383 9.36383C8.77 8.77017 7.96469 8.43668 7.125 8.43668C6.28531 8.43668 5.48 8.77017 4.88617 9.36383L2.375 11.875V3.5625C2.375 3.24756 2.50011 2.94551 2.72281 2.72281C2.94551 2.50011 3.24756 2.375 3.5625 2.375Z" fill="#FFBB00"/>
<path d="M12.2709 7.91634C13.3639 7.91634 14.25 7.03024 14.25 5.93717C14.25 4.84411 13.3639 3.95801 12.2709 3.95801C11.1778 3.95801 10.2917 4.84411 10.2917 5.93717C10.2917 7.03024 11.1778 7.91634 12.2709 7.91634Z" fill="#FFBB00"/>
</g>
<defs>
<clipPath id="clip0_1045_9136">
<rect width="19" height="19" fill="white"/>
</clipPath>
</defs>
</svg>
