<svg width="234" height="194" viewBox="0 0 234 194" fill="none" xmlns="http://www.w3.org/2000/svg">
<g filter="url(#filter0_d_1128_6045)">
<rect x="30" y="26" width="190" height="134" rx="10" fill="white"/>
</g>
<path d="M54.0371 47.2227H55.502C55.4551 47.7812 55.2988 48.2793 55.0332 48.7168C54.7676 49.1504 54.3945 49.4922 53.9141 49.7422C53.4336 49.9922 52.8496 50.1172 52.1621 50.1172C51.6348 50.1172 51.1602 50.0234 50.7383 49.8359C50.3164 49.6445 49.9551 49.375 49.6543 49.0273C49.3535 48.6758 49.123 48.252 48.9629 47.7559C48.8066 47.2598 48.7285 46.7051 48.7285 46.0918V45.3828C48.7285 44.7695 48.8086 44.2148 48.9688 43.7188C49.1328 43.2227 49.3672 42.7988 49.6719 42.4473C49.9766 42.0918 50.3418 41.8203 50.7676 41.6328C51.1973 41.4453 51.6797 41.3516 52.2148 41.3516C52.8945 41.3516 53.4688 41.4766 53.9375 41.7266C54.4062 41.9766 54.7695 42.3223 55.0273 42.7637C55.2891 43.2051 55.4492 43.7109 55.5078 44.2812H54.043C54.0039 43.9141 53.918 43.5996 53.7852 43.3379C53.6562 43.0762 53.4648 42.877 53.2109 42.7402C52.957 42.5996 52.625 42.5293 52.2148 42.5293C51.8789 42.5293 51.5859 42.5918 51.3359 42.7168C51.0859 42.8418 50.877 43.0254 50.709 43.2676C50.541 43.5098 50.4141 43.8086 50.3281 44.1641C50.2461 44.5156 50.2051 44.918 50.2051 45.3711V46.0918C50.2051 46.5215 50.2422 46.9121 50.3164 47.2637C50.3945 47.6113 50.5117 47.9102 50.668 48.1602C50.8281 48.4102 51.0312 48.6035 51.2773 48.7402C51.5234 48.877 51.8184 48.9453 52.1621 48.9453C52.5801 48.9453 52.918 48.8789 53.1758 48.7461C53.4375 48.6133 53.6348 48.4199 53.7676 48.166C53.9043 47.9082 53.9941 47.5938 54.0371 47.2227ZM56.4277 46.9004V46.7656C56.4277 46.3086 56.4941 45.8848 56.627 45.4941C56.7598 45.0996 56.9512 44.7578 57.2012 44.4688C57.4551 44.1758 57.7637 43.9492 58.127 43.7891C58.4941 43.625 58.9082 43.543 59.3691 43.543C59.834 43.543 60.248 43.625 60.6113 43.7891C60.9785 43.9492 61.2891 44.1758 61.543 44.4688C61.7969 44.7578 61.9902 45.0996 62.123 45.4941C62.2559 45.8848 62.3223 46.3086 62.3223 46.7656V46.9004C62.3223 47.3574 62.2559 47.7812 62.123 48.1719C61.9902 48.5625 61.7969 48.9043 61.543 49.1973C61.2891 49.4863 60.9805 49.7129 60.6172 49.877C60.2539 50.0371 59.8418 50.1172 59.3809 50.1172C58.916 50.1172 58.5 50.0371 58.1328 49.877C57.7695 49.7129 57.4609 49.4863 57.207 49.1973C56.9531 48.9043 56.7598 48.5625 56.627 48.1719C56.4941 47.7812 56.4277 47.3574 56.4277 46.9004ZM57.8398 46.7656V46.9004C57.8398 47.1855 57.8691 47.4551 57.9277 47.709C57.9863 47.9629 58.0781 48.1855 58.2031 48.377C58.3281 48.5684 58.4883 48.7188 58.6836 48.8281C58.8789 48.9375 59.1113 48.9922 59.3809 48.9922C59.6426 48.9922 59.8691 48.9375 60.0605 48.8281C60.2559 48.7188 60.416 48.5684 60.541 48.377C60.666 48.1855 60.7578 47.9629 60.8164 47.709C60.8789 47.4551 60.9102 47.1855 60.9102 46.9004V46.7656C60.9102 46.4844 60.8789 46.2188 60.8164 45.9688C60.7578 45.7148 60.6641 45.4902 60.5352 45.2949C60.4102 45.0996 60.25 44.9473 60.0547 44.8379C59.8633 44.7246 59.6348 44.668 59.3691 44.668C59.1035 44.668 58.873 44.7246 58.6777 44.8379C58.4863 44.9473 58.3281 45.0996 58.2031 45.2949C58.0781 45.4902 57.9863 45.7148 57.9277 45.9688C57.8691 46.2188 57.8398 46.4844 57.8398 46.7656ZM64.9062 45.0137V50H63.4941V43.6602H64.8242L64.9062 45.0137ZM64.6543 46.5957L64.1973 46.5898C64.2012 46.1406 64.2637 45.7285 64.3848 45.3535C64.5098 44.9785 64.6816 44.6562 64.9004 44.3867C65.123 44.1172 65.3887 43.9102 65.6973 43.7656C66.0059 43.6172 66.3496 43.543 66.7285 43.543C67.0332 43.543 67.3086 43.5859 67.5547 43.6719C67.8047 43.7539 68.0176 43.8887 68.1934 44.0762C68.373 44.2637 68.5098 44.5078 68.6035 44.8086C68.6973 45.1055 68.7441 45.4707 68.7441 45.9043V50H67.3262V45.8984C67.3262 45.5938 67.2812 45.3535 67.1914 45.1777C67.1055 44.998 66.9785 44.8711 66.8105 44.7969C66.6465 44.7188 66.4414 44.6797 66.1953 44.6797C65.9531 44.6797 65.7363 44.7305 65.5449 44.832C65.3535 44.9336 65.1914 45.0723 65.0586 45.248C64.9297 45.4238 64.8301 45.627 64.7598 45.8574C64.6895 46.0879 64.6543 46.334 64.6543 46.5957ZM72.248 48.8809L73.8008 43.6602H75.2656L73.0625 50H72.1484L72.248 48.8809ZM71.0586 43.6602L72.6406 48.9043L72.7168 50H71.8027L69.5879 43.6602H71.0586ZM78.8516 50.1172C78.3828 50.1172 77.959 50.041 77.5801 49.8887C77.2051 49.7324 76.8848 49.5156 76.6191 49.2383C76.3574 48.9609 76.1562 48.6348 76.0156 48.2598C75.875 47.8848 75.8047 47.4805 75.8047 47.0469V46.8125C75.8047 46.3164 75.877 45.8672 76.0215 45.4648C76.166 45.0625 76.3672 44.7188 76.625 44.4336C76.8828 44.1445 77.1875 43.9238 77.5391 43.7715C77.8906 43.6191 78.2715 43.543 78.6816 43.543C79.1348 43.543 79.5312 43.6191 79.8711 43.7715C80.2109 43.9238 80.4922 44.1387 80.7148 44.416C80.9414 44.6895 81.1094 45.0156 81.2188 45.3945C81.332 45.7734 81.3887 46.1914 81.3887 46.6484V47.252H76.4902V46.2383H79.9941V46.127C79.9863 45.873 79.9355 45.6348 79.8418 45.4121C79.752 45.1895 79.6133 45.0098 79.4258 44.873C79.2383 44.7363 78.9883 44.668 78.6758 44.668C78.4414 44.668 78.2324 44.7188 78.0488 44.8203C77.8691 44.918 77.7188 45.0605 77.5977 45.248C77.4766 45.4355 77.3828 45.6621 77.3164 45.9277C77.2539 46.1895 77.2227 46.4844 77.2227 46.8125V47.0469C77.2227 47.3242 77.2598 47.582 77.334 47.8203C77.4121 48.0547 77.5254 48.2598 77.6738 48.4355C77.8223 48.6113 78.002 48.75 78.2129 48.8516C78.4238 48.9492 78.6641 48.998 78.9336 48.998C79.2734 48.998 79.5762 48.9297 79.8418 48.793C80.1074 48.6562 80.3379 48.4629 80.5332 48.2129L81.2773 48.9336C81.1406 49.1328 80.9629 49.3242 80.7441 49.5078C80.5254 49.6875 80.2578 49.834 79.9414 49.9473C79.6289 50.0605 79.2656 50.1172 78.8516 50.1172ZM83.9082 44.8672V50H82.4961V43.6602H83.8438L83.9082 44.8672ZM85.8477 43.6191L85.8359 44.9316C85.75 44.916 85.6562 44.9043 85.5547 44.8965C85.457 44.8887 85.3594 44.8848 85.2617 44.8848C85.0195 44.8848 84.8066 44.9199 84.623 44.9902C84.4395 45.0566 84.2852 45.1543 84.1602 45.2832C84.0391 45.4082 83.9453 45.5605 83.8789 45.7402C83.8125 45.9199 83.7734 46.1211 83.7617 46.3438L83.4395 46.3672C83.4395 45.9688 83.4785 45.5996 83.5566 45.2598C83.6348 44.9199 83.752 44.6211 83.9082 44.3633C84.0684 44.1055 84.2676 43.9043 84.5059 43.7598C84.748 43.6152 85.0273 43.543 85.3438 43.543C85.4297 43.543 85.5215 43.5508 85.6191 43.5664C85.7207 43.582 85.7969 43.5996 85.8477 43.6191ZM89.9316 43.6602V44.6914H86.3574V43.6602H89.9316ZM87.3887 42.1074H88.8008V48.248C88.8008 48.4434 88.8281 48.5938 88.8828 48.6992C88.9414 48.8008 89.0215 48.8691 89.123 48.9043C89.2246 48.9395 89.3438 48.957 89.4805 48.957C89.5781 48.957 89.6719 48.9512 89.7617 48.9395C89.8516 48.9277 89.9238 48.916 89.9785 48.9043L89.9844 49.9824C89.8672 50.0176 89.7305 50.0488 89.5742 50.0762C89.4219 50.1035 89.2461 50.1172 89.0469 50.1172C88.7227 50.1172 88.4355 50.0605 88.1855 49.9473C87.9355 49.8301 87.7402 49.6406 87.5996 49.3789C87.459 49.1172 87.3887 48.7695 87.3887 48.3359V42.1074ZM96.916 43.6602V44.6914H93.3418V43.6602H96.916ZM94.373 42.1074H95.7852V48.248C95.7852 48.4434 95.8125 48.5938 95.8672 48.6992C95.9258 48.8008 96.0059 48.8691 96.1074 48.9043C96.209 48.9395 96.3281 48.957 96.4648 48.957C96.5625 48.957 96.6562 48.9512 96.7461 48.9395C96.8359 48.9277 96.9082 48.916 96.9629 48.9043L96.9688 49.9824C96.8516 50.0176 96.7148 50.0488 96.5586 50.0762C96.4062 50.1035 96.2305 50.1172 96.0312 50.1172C95.707 50.1172 95.4199 50.0605 95.1699 49.9473C94.9199 49.8301 94.7246 49.6406 94.584 49.3789C94.4434 49.1172 94.373 48.7695 94.373 48.3359V42.1074ZM97.5957 46.9004V46.7656C97.5957 46.3086 97.6621 45.8848 97.7949 45.4941C97.9277 45.0996 98.1191 44.7578 98.3691 44.4688C98.623 44.1758 98.9316 43.9492 99.2949 43.7891C99.6621 43.625 100.076 43.543 100.537 43.543C101.002 43.543 101.416 43.625 101.779 43.7891C102.146 43.9492 102.457 44.1758 102.711 44.4688C102.965 44.7578 103.158 45.0996 103.291 45.4941C103.424 45.8848 103.49 46.3086 103.49 46.7656V46.9004C103.49 47.3574 103.424 47.7812 103.291 48.1719C103.158 48.5625 102.965 48.9043 102.711 49.1973C102.457 49.4863 102.148 49.7129 101.785 49.877C101.422 50.0371 101.01 50.1172 100.549 50.1172C100.084 50.1172 99.668 50.0371 99.3008 49.877C98.9375 49.7129 98.6289 49.4863 98.375 49.1973C98.1211 48.9043 97.9277 48.5625 97.7949 48.1719C97.6621 47.7812 97.5957 47.3574 97.5957 46.9004ZM99.0078 46.7656V46.9004C99.0078 47.1855 99.0371 47.4551 99.0957 47.709C99.1543 47.9629 99.2461 48.1855 99.3711 48.377C99.4961 48.5684 99.6562 48.7188 99.8516 48.8281C100.047 48.9375 100.279 48.9922 100.549 48.9922C100.811 48.9922 101.037 48.9375 101.229 48.8281C101.424 48.7188 101.584 48.5684 101.709 48.377C101.834 48.1855 101.926 47.9629 101.984 47.709C102.047 47.4551 102.078 47.1855 102.078 46.9004V46.7656C102.078 46.4844 102.047 46.2188 101.984 45.9688C101.926 45.7148 101.832 45.4902 101.703 45.2949C101.578 45.0996 101.418 44.9473 101.223 44.8379C101.031 44.7246 100.803 44.668 100.537 44.668C100.271 44.668 100.041 44.7246 99.8457 44.8379C99.6543 44.9473 99.4961 45.0996 99.3711 45.2949C99.2461 45.4902 99.1543 45.7148 99.0957 45.9688C99.0371 46.2188 99.0078 46.4844 99.0078 46.7656ZM111.031 41.4688V50H109.572V41.4688H111.031ZM113.709 41.4688V42.6406H106.918V41.4688H113.709ZM116.926 50.1172C116.457 50.1172 116.033 50.041 115.654 49.8887C115.279 49.7324 114.959 49.5156 114.693 49.2383C114.432 48.9609 114.23 48.6348 114.09 48.2598C113.949 47.8848 113.879 47.4805 113.879 47.0469V46.8125C113.879 46.3164 113.951 45.8672 114.096 45.4648C114.24 45.0625 114.441 44.7188 114.699 44.4336C114.957 44.1445 115.262 43.9238 115.613 43.7715C115.965 43.6191 116.346 43.543 116.756 43.543C117.209 43.543 117.605 43.6191 117.945 43.7715C118.285 43.9238 118.566 44.1387 118.789 44.416C119.016 44.6895 119.184 45.0156 119.293 45.3945C119.406 45.7734 119.463 46.1914 119.463 46.6484V47.252H114.564V46.2383H118.068V46.127C118.061 45.873 118.01 45.6348 117.916 45.4121C117.826 45.1895 117.688 45.0098 117.5 44.873C117.312 44.7363 117.062 44.668 116.75 44.668C116.516 44.668 116.307 44.7188 116.123 44.8203C115.943 44.918 115.793 45.0605 115.672 45.248C115.551 45.4355 115.457 45.6621 115.391 45.9277C115.328 46.1895 115.297 46.4844 115.297 46.8125V47.0469C115.297 47.3242 115.334 47.582 115.408 47.8203C115.486 48.0547 115.6 48.2598 115.748 48.4355C115.896 48.6113 116.076 48.75 116.287 48.8516C116.498 48.9492 116.738 48.998 117.008 48.998C117.348 48.998 117.65 48.9297 117.916 48.793C118.182 48.6562 118.412 48.4629 118.607 48.2129L119.352 48.9336C119.215 49.1328 119.037 49.3242 118.818 49.5078C118.6 49.6875 118.332 49.834 118.016 49.9473C117.703 50.0605 117.34 50.1172 116.926 50.1172ZM121.643 43.6602L122.85 45.7637L124.08 43.6602H125.633L123.711 46.7715L125.709 50H124.156L122.867 47.8086L121.578 50H120.02L122.012 46.7715L120.096 43.6602H121.643ZM129.506 43.6602V44.6914H125.932V43.6602H129.506ZM126.963 42.1074H128.375V48.248C128.375 48.4434 128.402 48.5938 128.457 48.6992C128.516 48.8008 128.596 48.8691 128.697 48.9043C128.799 48.9395 128.918 48.957 129.055 48.957C129.152 48.957 129.246 48.9512 129.336 48.9395C129.426 48.9277 129.498 48.916 129.553 48.9043L129.559 49.9824C129.441 50.0176 129.305 50.0488 129.148 50.0762C128.996 50.1035 128.82 50.1172 128.621 50.1172C128.297 50.1172 128.01 50.0605 127.76 49.9473C127.51 49.8301 127.314 49.6406 127.174 49.3789C127.033 49.1172 126.963 48.7695 126.963 48.3359V42.1074Z" fill="#AFAFAF"/>
<path d="M55.375 77.8027C55.375 77.627 55.3477 77.4707 55.293 77.334C55.2422 77.1973 55.1504 77.0723 55.0176 76.959C54.8848 76.8457 54.6973 76.7363 54.4551 76.6309C54.2168 76.5215 53.9121 76.4102 53.541 76.2969C53.1348 76.1719 52.7598 76.0332 52.416 75.8809C52.0762 75.7246 51.7793 75.5449 51.5254 75.3418C51.2715 75.1348 51.0742 74.8984 50.9336 74.6328C50.793 74.3633 50.7227 74.0527 50.7227 73.7012C50.7227 73.3535 50.7949 73.0371 50.9395 72.752C51.0879 72.4668 51.2969 72.2207 51.5664 72.0137C51.8398 71.8027 52.1621 71.6406 52.5332 71.5273C52.9043 71.4102 53.3145 71.3516 53.7637 71.3516C54.3965 71.3516 54.9414 71.4688 55.3984 71.7031C55.8594 71.9375 56.2129 72.252 56.459 72.6465C56.709 73.041 56.834 73.4766 56.834 73.9531H55.375C55.375 73.6719 55.3145 73.4238 55.1934 73.209C55.0762 72.9902 54.8965 72.8184 54.6543 72.6934C54.416 72.5684 54.1133 72.5059 53.7461 72.5059C53.3984 72.5059 53.1094 72.5586 52.8789 72.6641C52.6484 72.7695 52.4766 72.9121 52.3633 73.0918C52.25 73.2715 52.1934 73.4746 52.1934 73.7012C52.1934 73.8613 52.2305 74.0078 52.3047 74.1406C52.3789 74.2695 52.4922 74.3906 52.6445 74.5039C52.7969 74.6133 52.9883 74.7168 53.2188 74.8145C53.4492 74.9121 53.7207 75.0059 54.0332 75.0957C54.5059 75.2363 54.918 75.3926 55.2695 75.5645C55.6211 75.7324 55.9141 75.9238 56.1484 76.1387C56.3828 76.3535 56.5586 76.5977 56.6758 76.8711C56.793 77.1406 56.8516 77.4473 56.8516 77.791C56.8516 78.1504 56.7793 78.4746 56.6348 78.7637C56.4902 79.0488 56.2832 79.293 56.0137 79.4961C55.748 79.6953 55.4277 79.8496 55.0527 79.959C54.6816 80.0645 54.2676 80.1172 53.8105 80.1172C53.4004 80.1172 52.9961 80.0625 52.5977 79.9531C52.2031 79.8438 51.8438 79.6777 51.5195 79.4551C51.1953 79.2285 50.9375 78.9473 50.7461 78.6113C50.5547 78.2715 50.459 77.875 50.459 77.4219H51.9297C51.9297 77.6992 51.9766 77.9355 52.0703 78.1309C52.168 78.3262 52.3027 78.4863 52.4746 78.6113C52.6465 78.7324 52.8457 78.8223 53.0723 78.8809C53.3027 78.9395 53.5488 78.9688 53.8105 78.9688C54.1543 78.9688 54.4414 78.9199 54.6719 78.8223C54.9062 78.7246 55.082 78.5879 55.1992 78.4121C55.3164 78.2363 55.375 78.0332 55.375 77.8027ZM59.4062 71V80H58V71H59.4062ZM59.1602 76.5957L58.7031 76.5898C58.707 76.1523 58.7676 75.748 58.8848 75.377C59.0059 75.0059 59.1738 74.6836 59.3887 74.4102C59.6074 74.1328 59.8691 73.9199 60.1738 73.7715C60.4785 73.6191 60.8164 73.543 61.1875 73.543C61.5 73.543 61.7812 73.5859 62.0312 73.6719C62.2852 73.7578 62.5039 73.8965 62.6875 74.0879C62.8711 74.2754 63.0098 74.5215 63.1035 74.8262C63.2012 75.127 63.25 75.4941 63.25 75.9277V80H61.832V75.916C61.832 75.6113 61.7871 75.3691 61.6973 75.1895C61.6113 75.0098 61.4844 74.8809 61.3164 74.8027C61.1484 74.7207 60.9434 74.6797 60.7012 74.6797C60.4473 74.6797 60.2227 74.7305 60.0273 74.832C59.8359 74.9336 59.6758 75.0723 59.5469 75.248C59.418 75.4238 59.3203 75.627 59.2539 75.8574C59.1914 76.0879 59.1602 76.334 59.1602 76.5957ZM68.2539 78.7285V75.7051C68.2539 75.4785 68.2129 75.2832 68.1309 75.1191C68.0488 74.9551 67.9238 74.8281 67.7559 74.7383C67.5918 74.6484 67.3848 74.6035 67.1348 74.6035C66.9043 74.6035 66.7051 74.6426 66.5371 74.7207C66.3691 74.7988 66.2383 74.9043 66.1445 75.0371C66.0508 75.1699 66.0039 75.3203 66.0039 75.4883H64.5977C64.5977 75.2383 64.6582 74.9961 64.7793 74.7617C64.9004 74.5273 65.0762 74.3184 65.3066 74.1348C65.5371 73.9512 65.8125 73.8066 66.1328 73.7012C66.4531 73.5957 66.8125 73.543 67.2109 73.543C67.6875 73.543 68.1094 73.623 68.4766 73.7832C68.8477 73.9434 69.1387 74.1855 69.3496 74.5098C69.5645 74.8301 69.6719 75.2324 69.6719 75.7168V78.5352C69.6719 78.8242 69.6914 79.084 69.7305 79.3145C69.7734 79.541 69.834 79.7383 69.9121 79.9062V80H68.4648C68.3984 79.8477 68.3457 79.6543 68.3066 79.4199C68.2715 79.1816 68.2539 78.9512 68.2539 78.7285ZM68.459 76.1445L68.4707 77.0176H67.457C67.1953 77.0176 66.9648 77.043 66.7656 77.0938C66.5664 77.1406 66.4004 77.2109 66.2676 77.3047C66.1348 77.3984 66.0352 77.5117 65.9688 77.6445C65.9023 77.7773 65.8691 77.9277 65.8691 78.0957C65.8691 78.2637 65.9082 78.418 65.9863 78.5586C66.0645 78.6953 66.1777 78.8027 66.3262 78.8809C66.4785 78.959 66.6621 78.998 66.877 78.998C67.166 78.998 67.418 78.9395 67.6328 78.8223C67.8516 78.7012 68.0234 78.5547 68.1484 78.3828C68.2734 78.207 68.3398 78.041 68.3477 77.8848L68.8047 78.5117C68.7578 78.6719 68.6777 78.8438 68.5645 79.0273C68.4512 79.2109 68.3027 79.3867 68.1191 79.5547C67.9395 79.7188 67.7227 79.8535 67.4688 79.959C67.2188 80.0645 66.9297 80.1172 66.6016 80.1172C66.1875 80.1172 65.8184 80.0352 65.4941 79.8711C65.1699 79.7031 64.916 79.4785 64.7324 79.1973C64.5488 78.9121 64.457 78.5898 64.457 78.2305C64.457 77.8945 64.5195 77.5977 64.6445 77.3398C64.7734 77.0781 64.9609 76.8594 65.207 76.6836C65.457 76.5078 65.7617 76.375 66.1211 76.2852C66.4805 76.1914 66.8906 76.1445 67.3516 76.1445H68.459ZM72.5664 74.8672V80H71.1543V73.6602H72.502L72.5664 74.8672ZM74.5059 73.6191L74.4941 74.9316C74.4082 74.916 74.3145 74.9043 74.2129 74.8965C74.1152 74.8887 74.0176 74.8848 73.9199 74.8848C73.6777 74.8848 73.4648 74.9199 73.2812 74.9902C73.0977 75.0566 72.9434 75.1543 72.8184 75.2832C72.6973 75.4082 72.6035 75.5605 72.5371 75.7402C72.4707 75.9199 72.4316 76.1211 72.4199 76.3438L72.0977 76.3672C72.0977 75.9688 72.1367 75.5996 72.2148 75.2598C72.293 74.9199 72.4102 74.6211 72.5664 74.3633C72.7266 74.1055 72.9258 73.9043 73.1641 73.7598C73.4062 73.6152 73.6855 73.543 74.002 73.543C74.0879 73.543 74.1797 73.5508 74.2773 73.5664C74.3789 73.582 74.4551 73.5996 74.5059 73.6191ZM78.0684 80.1172C77.5996 80.1172 77.1758 80.041 76.7969 79.8887C76.4219 79.7324 76.1016 79.5156 75.8359 79.2383C75.5742 78.9609 75.373 78.6348 75.2324 78.2598C75.0918 77.8848 75.0215 77.4805 75.0215 77.0469V76.8125C75.0215 76.3164 75.0938 75.8672 75.2383 75.4648C75.3828 75.0625 75.584 74.7188 75.8418 74.4336C76.0996 74.1445 76.4043 73.9238 76.7559 73.7715C77.1074 73.6191 77.4883 73.543 77.8984 73.543C78.3516 73.543 78.748 73.6191 79.0879 73.7715C79.4277 73.9238 79.709 74.1387 79.9316 74.416C80.1582 74.6895 80.3262 75.0156 80.4355 75.3945C80.5488 75.7734 80.6055 76.1914 80.6055 76.6484V77.252H75.707V76.2383H79.2109V76.127C79.2031 75.873 79.1523 75.6348 79.0586 75.4121C78.9688 75.1895 78.8301 75.0098 78.6426 74.873C78.4551 74.7363 78.2051 74.668 77.8926 74.668C77.6582 74.668 77.4492 74.7188 77.2656 74.8203C77.0859 74.918 76.9355 75.0605 76.8145 75.248C76.6934 75.4355 76.5996 75.6621 76.5332 75.9277C76.4707 76.1895 76.4395 76.4844 76.4395 76.8125V77.0469C76.4395 77.3242 76.4766 77.582 76.5508 77.8203C76.6289 78.0547 76.7422 78.2598 76.8906 78.4355C77.0391 78.6113 77.2188 78.75 77.4297 78.8516C77.6406 78.9492 77.8809 78.998 78.1504 78.998C78.4902 78.998 78.793 78.9297 79.0586 78.793C79.3242 78.6562 79.5547 78.4629 79.75 78.2129L80.4941 78.9336C80.3574 79.1328 80.1797 79.3242 79.9609 79.5078C79.7422 79.6875 79.4746 79.834 79.1582 79.9473C78.8457 80.0605 78.4824 80.1172 78.0684 80.1172Z" fill="#AFAFAF"/>
<path d="M56.2871 106.818H54.0664V105.652H56.2871C56.6738 105.652 56.9863 105.59 57.2246 105.465C57.4629 105.34 57.6367 105.168 57.7461 104.949C57.8594 104.727 57.916 104.473 57.916 104.188C57.916 103.918 57.8594 103.666 57.7461 103.432C57.6367 103.193 57.4629 103.002 57.2246 102.857C56.9863 102.713 56.6738 102.641 56.2871 102.641H54.5176V110H53.0469V101.469H56.2871C56.9473 101.469 57.5078 101.586 57.9688 101.82C58.4336 102.051 58.7871 102.371 59.0293 102.781C59.2715 103.188 59.3926 103.652 59.3926 104.176C59.3926 104.727 59.2715 105.199 59.0293 105.594C58.7871 105.988 58.4336 106.291 57.9688 106.502C57.5078 106.713 56.9473 106.818 56.2871 106.818ZM61.9883 104.867V110H60.5762V103.66H61.9238L61.9883 104.867ZM63.9277 103.619L63.916 104.932C63.8301 104.916 63.7363 104.904 63.6348 104.896C63.5371 104.889 63.4395 104.885 63.3418 104.885C63.0996 104.885 62.8867 104.92 62.7031 104.99C62.5195 105.057 62.3652 105.154 62.2402 105.283C62.1191 105.408 62.0254 105.561 61.959 105.74C61.8926 105.92 61.8535 106.121 61.8418 106.344L61.5195 106.367C61.5195 105.969 61.5586 105.6 61.6367 105.26C61.7148 104.92 61.832 104.621 61.9883 104.363C62.1484 104.105 62.3477 103.904 62.5859 103.76C62.8281 103.615 63.1074 103.543 63.4238 103.543C63.5098 103.543 63.6016 103.551 63.6992 103.566C63.8008 103.582 63.877 103.6 63.9277 103.619ZM66.3242 103.66V110H64.9062V103.66H66.3242ZM64.8125 101.996C64.8125 101.781 64.8828 101.604 65.0234 101.463C65.168 101.318 65.3672 101.246 65.6211 101.246C65.8711 101.246 66.0684 101.318 66.2129 101.463C66.3574 101.604 66.4297 101.781 66.4297 101.996C66.4297 102.207 66.3574 102.383 66.2129 102.523C66.0684 102.664 65.8711 102.734 65.6211 102.734C65.3672 102.734 65.168 102.664 65.0234 102.523C64.8828 102.383 64.8125 102.207 64.8125 101.996ZM69.2715 105.014V110H67.8594V103.66H69.1895L69.2715 105.014ZM69.0195 106.596L68.5625 106.59C68.5664 106.141 68.6289 105.729 68.75 105.354C68.875 104.979 69.0469 104.656 69.2656 104.387C69.4883 104.117 69.7539 103.91 70.0625 103.766C70.3711 103.617 70.7148 103.543 71.0938 103.543C71.3984 103.543 71.6738 103.586 71.9199 103.672C72.1699 103.754 72.3828 103.889 72.5586 104.076C72.7383 104.264 72.875 104.508 72.9688 104.809C73.0625 105.105 73.1094 105.471 73.1094 105.904V110H71.6914V105.898C71.6914 105.594 71.6465 105.354 71.5566 105.178C71.4707 104.998 71.3438 104.871 71.1758 104.797C71.0117 104.719 70.8066 104.68 70.5605 104.68C70.3184 104.68 70.1016 104.73 69.9102 104.832C69.7188 104.934 69.5566 105.072 69.4238 105.248C69.2949 105.424 69.1953 105.627 69.125 105.857C69.0547 106.088 69.0195 106.334 69.0195 106.596ZM77.457 103.66V104.691H73.8828V103.66H77.457ZM74.9141 102.107H76.3262V108.248C76.3262 108.443 76.3535 108.594 76.4082 108.699C76.4668 108.801 76.5469 108.869 76.6484 108.904C76.75 108.939 76.8691 108.957 77.0059 108.957C77.1035 108.957 77.1973 108.951 77.2871 108.939C77.377 108.928 77.4492 108.916 77.5039 108.904L77.5098 109.982C77.3926 110.018 77.2559 110.049 77.0996 110.076C76.9473 110.104 76.7715 110.117 76.5723 110.117C76.248 110.117 75.9609 110.061 75.7109 109.947C75.4609 109.83 75.2656 109.641 75.125 109.379C74.9844 109.117 74.9141 108.77 74.9141 108.336V102.107Z" fill="#AFAFAF"/>
<line x1="30" y1="59.75" x2="220" y2="59.75" stroke="#D9D9D9" stroke-width="0.5"/>
<line x1="30" y1="89.75" x2="220" y2="89.75" stroke="#D9D9D9" stroke-width="0.5"/>
<path d="M51.748 143H49.9258L49.9375 141.834H51.748C52.2754 141.834 52.7168 141.719 53.0723 141.488C53.4316 141.258 53.7012 140.928 53.8809 140.498C54.0645 140.068 54.1562 139.557 54.1562 138.963V138.5C54.1562 138.039 54.1035 137.631 53.998 137.275C53.8965 136.92 53.7441 136.621 53.541 136.379C53.3418 136.137 53.0957 135.953 52.8027 135.828C52.5137 135.703 52.1797 135.641 51.8008 135.641H49.8906V134.469H51.8008C52.3672 134.469 52.8848 134.564 53.3535 134.756C53.8223 134.943 54.2266 135.215 54.5664 135.57C54.9102 135.926 55.1738 136.352 55.3574 136.848C55.541 137.344 55.6328 137.898 55.6328 138.512V138.963C55.6328 139.576 55.541 140.131 55.3574 140.627C55.1738 141.123 54.9102 141.549 54.5664 141.904C54.2227 142.256 53.8125 142.527 53.3359 142.719C52.8633 142.906 52.334 143 51.748 143ZM50.7402 134.469V143H49.2695V134.469H50.7402ZM59.7637 143.117C59.2949 143.117 58.8711 143.041 58.4922 142.889C58.1172 142.732 57.7969 142.516 57.5312 142.238C57.2695 141.961 57.0684 141.635 56.9277 141.26C56.7871 140.885 56.7168 140.48 56.7168 140.047V139.812C56.7168 139.316 56.7891 138.867 56.9336 138.465C57.0781 138.062 57.2793 137.719 57.5371 137.434C57.7949 137.145 58.0996 136.924 58.4512 136.771C58.8027 136.619 59.1836 136.543 59.5938 136.543C60.0469 136.543 60.4434 136.619 60.7832 136.771C61.123 136.924 61.4043 137.139 61.627 137.416C61.8535 137.689 62.0215 138.016 62.1309 138.395C62.2441 138.773 62.3008 139.191 62.3008 139.648V140.252H57.4023V139.238H60.9062V139.127C60.8984 138.873 60.8477 138.635 60.7539 138.412C60.6641 138.189 60.5254 138.01 60.3379 137.873C60.1504 137.736 59.9004 137.668 59.5879 137.668C59.3535 137.668 59.1445 137.719 58.9609 137.82C58.7812 137.918 58.6309 138.061 58.5098 138.248C58.3887 138.436 58.2949 138.662 58.2285 138.928C58.166 139.189 58.1348 139.484 58.1348 139.812V140.047C58.1348 140.324 58.1719 140.582 58.2461 140.82C58.3242 141.055 58.4375 141.26 58.5859 141.436C58.7344 141.611 58.9141 141.75 59.125 141.852C59.3359 141.949 59.5762 141.998 59.8457 141.998C60.1855 141.998 60.4883 141.93 60.7539 141.793C61.0195 141.656 61.25 141.463 61.4453 141.213L62.1895 141.934C62.0527 142.133 61.875 142.324 61.6562 142.508C61.4375 142.688 61.1699 142.834 60.8535 142.947C60.541 143.061 60.1777 143.117 59.7637 143.117ZM64.9141 134V143H63.4961V134H64.9141ZM69.2559 143.117C68.7871 143.117 68.3633 143.041 67.9844 142.889C67.6094 142.732 67.2891 142.516 67.0234 142.238C66.7617 141.961 66.5605 141.635 66.4199 141.26C66.2793 140.885 66.209 140.48 66.209 140.047V139.812C66.209 139.316 66.2812 138.867 66.4258 138.465C66.5703 138.062 66.7715 137.719 67.0293 137.434C67.2871 137.145 67.5918 136.924 67.9434 136.771C68.2949 136.619 68.6758 136.543 69.0859 136.543C69.5391 136.543 69.9355 136.619 70.2754 136.771C70.6152 136.924 70.8965 137.139 71.1191 137.416C71.3457 137.689 71.5137 138.016 71.623 138.395C71.7363 138.773 71.793 139.191 71.793 139.648V140.252H66.8945V139.238H70.3984V139.127C70.3906 138.873 70.3398 138.635 70.2461 138.412C70.1562 138.189 70.0176 138.01 69.8301 137.873C69.6426 137.736 69.3926 137.668 69.0801 137.668C68.8457 137.668 68.6367 137.719 68.4531 137.82C68.2734 137.918 68.123 138.061 68.002 138.248C67.8809 138.436 67.7871 138.662 67.7207 138.928C67.6582 139.189 67.627 139.484 67.627 139.812V140.047C67.627 140.324 67.6641 140.582 67.7383 140.82C67.8164 141.055 67.9297 141.26 68.0781 141.436C68.2266 141.611 68.4062 141.75 68.6172 141.852C68.8281 141.949 69.0684 141.998 69.3379 141.998C69.6777 141.998 69.9805 141.93 70.2461 141.793C70.5117 141.656 70.7422 141.463 70.9375 141.213L71.6816 141.934C71.5449 142.133 71.3672 142.324 71.1484 142.508C70.9297 142.688 70.6621 142.834 70.3457 142.947C70.0332 143.061 69.6699 143.117 69.2559 143.117ZM75.8008 136.66V137.691H72.2266V136.66H75.8008ZM73.2578 135.107H74.6699V141.248C74.6699 141.443 74.6973 141.594 74.752 141.699C74.8105 141.801 74.8906 141.869 74.9922 141.904C75.0938 141.939 75.2129 141.957 75.3496 141.957C75.4473 141.957 75.541 141.951 75.6309 141.939C75.7207 141.928 75.793 141.916 75.8477 141.904L75.8535 142.982C75.7363 143.018 75.5996 143.049 75.4434 143.076C75.291 143.104 75.1152 143.117 74.916 143.117C74.5918 143.117 74.3047 143.061 74.0547 142.947C73.8047 142.83 73.6094 142.641 73.4688 142.379C73.3281 142.117 73.2578 141.77 73.2578 141.336V135.107ZM79.6855 143.117C79.2168 143.117 78.793 143.041 78.4141 142.889C78.0391 142.732 77.7188 142.516 77.4531 142.238C77.1914 141.961 76.9902 141.635 76.8496 141.26C76.709 140.885 76.6387 140.48 76.6387 140.047V139.812C76.6387 139.316 76.7109 138.867 76.8555 138.465C77 138.062 77.2012 137.719 77.459 137.434C77.7168 137.145 78.0215 136.924 78.373 136.771C78.7246 136.619 79.1055 136.543 79.5156 136.543C79.9688 136.543 80.3652 136.619 80.7051 136.771C81.0449 136.924 81.3262 137.139 81.5488 137.416C81.7754 137.689 81.9434 138.016 82.0527 138.395C82.166 138.773 82.2227 139.191 82.2227 139.648V140.252H77.3242V139.238H80.8281V139.127C80.8203 138.873 80.7695 138.635 80.6758 138.412C80.5859 138.189 80.4473 138.01 80.2598 137.873C80.0723 137.736 79.8223 137.668 79.5098 137.668C79.2754 137.668 79.0664 137.719 78.8828 137.82C78.7031 137.918 78.5527 138.061 78.4316 138.248C78.3105 138.436 78.2168 138.662 78.1504 138.928C78.0879 139.189 78.0566 139.484 78.0566 139.812V140.047C78.0566 140.324 78.0938 140.582 78.168 140.82C78.2461 141.055 78.3594 141.26 78.5078 141.436C78.6562 141.611 78.8359 141.75 79.0469 141.852C79.2578 141.949 79.498 141.998 79.7676 141.998C80.1074 141.998 80.4102 141.93 80.6758 141.793C80.9414 141.656 81.1719 141.463 81.3672 141.213L82.1113 141.934C81.9746 142.133 81.7969 142.324 81.5781 142.508C81.3594 142.688 81.0918 142.834 80.7754 142.947C80.4629 143.061 80.0996 143.117 79.6855 143.117Z" fill="#E12426"/>
<line x1="30" y1="122.75" x2="220" y2="122.75" stroke="#D9D9D9" stroke-width="0.5"/>
<defs>
<filter id="filter0_d_1128_6045" x="0" y="0" width="250" height="194" filterUnits="userSpaceOnUse" color-interpolation-filters="sRGB">
<feFlood flood-opacity="0" result="BackgroundImageFix"/>
<feColorMatrix in="SourceAlpha" type="matrix" values="0 0 0 0 0 0 0 0 0 0 0 0 0 0 0 0 0 0 127 0" result="hardAlpha"/>
<feOffset dy="4"/>
<feGaussianBlur stdDeviation="15"/>
<feComposite in2="hardAlpha" operator="out"/>
<feColorMatrix type="matrix" values="0 0 0 0 0 0 0 0 0 0 0 0 0 0 0 0 0 0 0.25 0"/>
<feBlend mode="normal" in2="BackgroundImageFix" result="effect1_dropShadow_1128_6045"/>
<feBlend mode="normal" in="SourceGraphic" in2="effect1_dropShadow_1128_6045" result="shape"/>
</filter>
</defs>
</svg>
