<svg width="250" height="114" viewBox="0 0 250 114" fill="none" xmlns="http://www.w3.org/2000/svg">
<g filter="url(#filter0_d_1128_6061)">
<rect x="130" y="16" width="100" height="74" rx="8" fill="white"/>
<path d="M145.723 63.2871H146.848C146.789 63.8262 146.635 64.3086 146.385 64.7344C146.135 65.1602 145.781 65.498 145.324 65.748C144.867 65.9941 144.297 66.1172 143.613 66.1172C143.113 66.1172 142.658 66.0234 142.248 65.8359C141.842 65.6484 141.492 65.3828 141.199 65.0391C140.906 64.6914 140.68 64.2754 140.52 63.791C140.363 63.3027 140.285 62.7598 140.285 62.1621V61.3125C140.285 60.7148 140.363 60.1738 140.52 59.6895C140.68 59.2012 140.908 58.7832 141.205 58.4355C141.506 58.0879 141.867 57.8203 142.289 57.6328C142.711 57.4453 143.186 57.3516 143.713 57.3516C144.357 57.3516 144.902 57.4727 145.348 57.7148C145.793 57.957 146.139 58.293 146.385 58.7227C146.635 59.1484 146.789 59.6426 146.848 60.2051H145.723C145.668 59.8066 145.566 59.4648 145.418 59.1797C145.27 58.8906 145.059 58.668 144.785 58.5117C144.512 58.3555 144.154 58.2773 143.713 58.2773C143.334 58.2773 143 58.3496 142.711 58.4941C142.426 58.6387 142.186 58.8438 141.99 59.1094C141.799 59.375 141.654 59.6934 141.557 60.0645C141.459 60.4355 141.41 60.8477 141.41 61.3008V62.1621C141.41 62.5801 141.453 62.9727 141.539 63.3398C141.629 63.707 141.764 64.0293 141.943 64.3066C142.123 64.584 142.352 64.8027 142.629 64.9629C142.906 65.1191 143.234 65.1973 143.613 65.1973C144.094 65.1973 144.477 65.1211 144.762 64.9688C145.047 64.8164 145.262 64.5977 145.406 64.3125C145.555 64.0273 145.66 63.6855 145.723 63.2871ZM147.938 62.9004V62.7656C147.938 62.3086 148.004 61.8848 148.137 61.4941C148.27 61.0996 148.461 60.7578 148.711 60.4688C148.961 60.1758 149.264 59.9492 149.619 59.7891C149.975 59.625 150.373 59.543 150.814 59.543C151.26 59.543 151.66 59.625 152.016 59.7891C152.375 59.9492 152.68 60.1758 152.93 60.4688C153.184 60.7578 153.377 61.0996 153.51 61.4941C153.643 61.8848 153.709 62.3086 153.709 62.7656V62.9004C153.709 63.3574 153.643 63.7812 153.51 64.1719C153.377 64.5625 153.184 64.9043 152.93 65.1973C152.68 65.4863 152.377 65.7129 152.021 65.877C151.67 66.0371 151.271 66.1172 150.826 66.1172C150.381 66.1172 149.98 66.0371 149.625 65.877C149.27 65.7129 148.965 65.4863 148.711 65.1973C148.461 64.9043 148.27 64.5625 148.137 64.1719C148.004 63.7812 147.938 63.3574 147.938 62.9004ZM149.021 62.7656V62.9004C149.021 63.2168 149.059 63.5156 149.133 63.7969C149.207 64.0742 149.318 64.3203 149.467 64.5352C149.619 64.75 149.809 64.9199 150.035 65.0449C150.262 65.166 150.525 65.2266 150.826 65.2266C151.123 65.2266 151.383 65.166 151.605 65.0449C151.832 64.9199 152.02 64.75 152.168 64.5352C152.316 64.3203 152.428 64.0742 152.502 63.7969C152.58 63.5156 152.619 63.2168 152.619 62.9004V62.7656C152.619 62.4531 152.58 62.1582 152.502 61.8809C152.428 61.5996 152.314 61.3516 152.162 61.1367C152.014 60.918 151.826 60.7461 151.6 60.6211C151.377 60.4961 151.115 60.4336 150.814 60.4336C150.518 60.4336 150.256 60.4961 150.029 60.6211C149.807 60.7461 149.619 60.918 149.467 61.1367C149.318 61.3516 149.207 61.5996 149.133 61.8809C149.059 62.1582 149.021 62.4531 149.021 62.7656ZM156.146 60.9199V66H155.057V59.6602H156.088L156.146 60.9199ZM155.924 62.5898L155.42 62.5723C155.424 62.1387 155.48 61.7383 155.59 61.3711C155.699 61 155.861 60.6777 156.076 60.4043C156.291 60.1309 156.559 59.9199 156.879 59.7715C157.199 59.6191 157.57 59.543 157.992 59.543C158.289 59.543 158.562 59.5859 158.812 59.6719C159.062 59.7539 159.279 59.8848 159.463 60.0645C159.646 60.2441 159.789 60.4746 159.891 60.7559C159.992 61.0371 160.043 61.377 160.043 61.7754V66H158.959V61.8281C158.959 61.4961 158.902 61.2305 158.789 61.0312C158.68 60.832 158.523 60.6875 158.32 60.5977C158.117 60.5039 157.879 60.457 157.605 60.457C157.285 60.457 157.018 60.5137 156.803 60.627C156.588 60.7402 156.416 60.8965 156.287 61.0957C156.158 61.2949 156.064 61.5234 156.006 61.7812C155.951 62.0352 155.924 62.3047 155.924 62.5898ZM160.031 61.9922L159.305 62.2148C159.309 61.8672 159.365 61.5332 159.475 61.2129C159.588 60.8926 159.75 60.6074 159.961 60.3574C160.176 60.1074 160.439 59.9102 160.752 59.7656C161.064 59.6172 161.422 59.543 161.824 59.543C162.164 59.543 162.465 59.5879 162.727 59.6777C162.992 59.7676 163.215 59.9062 163.395 60.0938C163.578 60.2773 163.717 60.5137 163.811 60.8027C163.904 61.0918 163.951 61.4355 163.951 61.834V66H162.861V61.8223C162.861 61.4668 162.805 61.1914 162.691 60.9961C162.582 60.7969 162.426 60.6582 162.223 60.5801C162.023 60.498 161.785 60.457 161.508 60.457C161.27 60.457 161.059 60.498 160.875 60.5801C160.691 60.6621 160.537 60.7754 160.412 60.9199C160.287 61.0605 160.191 61.2227 160.125 61.4062C160.062 61.5898 160.031 61.7852 160.031 61.9922ZM165.586 57H166.676V64.7695L166.582 66H165.586V57ZM170.959 62.7773V62.9004C170.959 63.3613 170.904 63.7891 170.795 64.1836C170.686 64.5742 170.525 64.9141 170.314 65.2031C170.104 65.4922 169.846 65.7168 169.541 65.877C169.236 66.0371 168.887 66.1172 168.492 66.1172C168.09 66.1172 167.736 66.0488 167.432 65.9121C167.131 65.7715 166.877 65.5703 166.67 65.3086C166.463 65.0469 166.297 64.7305 166.172 64.3594C166.051 63.9883 165.967 63.5703 165.92 63.1055V62.5664C165.967 62.0977 166.051 61.6777 166.172 61.3066C166.297 60.9355 166.463 60.6191 166.67 60.3574C166.877 60.0918 167.131 59.8906 167.432 59.7539C167.732 59.6133 168.082 59.543 168.48 59.543C168.879 59.543 169.232 59.6211 169.541 59.7773C169.85 59.9297 170.107 60.1484 170.314 60.4336C170.525 60.7188 170.686 61.0605 170.795 61.459C170.904 61.8535 170.959 62.293 170.959 62.7773ZM169.869 62.9004V62.7773C169.869 62.4609 169.84 62.1641 169.781 61.8867C169.723 61.6055 169.629 61.3594 169.5 61.1484C169.371 60.9336 169.201 60.7656 168.99 60.6445C168.779 60.5195 168.52 60.457 168.211 60.457C167.938 60.457 167.699 60.5039 167.496 60.5977C167.297 60.6914 167.127 60.8184 166.986 60.9785C166.846 61.1348 166.73 61.3145 166.641 61.5176C166.555 61.7168 166.49 61.9238 166.447 62.1387V63.5508C166.51 63.8242 166.611 64.0879 166.752 64.3418C166.896 64.5918 167.088 64.7969 167.326 64.957C167.568 65.1172 167.867 65.1973 168.223 65.1973C168.516 65.1973 168.766 65.1387 168.973 65.0215C169.184 64.9004 169.354 64.7344 169.482 64.5234C169.615 64.3125 169.713 64.0684 169.775 63.791C169.838 63.5137 169.869 63.2168 169.869 62.9004ZM173.508 59.6602V66H172.418V59.6602H173.508ZM172.336 57.9785C172.336 57.8027 172.389 57.6543 172.494 57.5332C172.604 57.4121 172.764 57.3516 172.975 57.3516C173.182 57.3516 173.34 57.4121 173.449 57.5332C173.562 57.6543 173.619 57.8027 173.619 57.9785C173.619 58.1465 173.562 58.291 173.449 58.4121C173.34 58.5293 173.182 58.5879 172.975 58.5879C172.764 58.5879 172.604 58.5293 172.494 58.4121C172.389 58.291 172.336 58.1465 172.336 57.9785ZM176.332 61.0137V66H175.248V59.6602H176.273L176.332 61.0137ZM176.074 62.5898L175.623 62.5723C175.627 62.1387 175.691 61.7383 175.816 61.3711C175.941 61 176.117 60.6777 176.344 60.4043C176.57 60.1309 176.84 59.9199 177.152 59.7715C177.469 59.6191 177.818 59.543 178.201 59.543C178.514 59.543 178.795 59.5859 179.045 59.6719C179.295 59.7539 179.508 59.8867 179.684 60.0703C179.863 60.2539 180 60.4922 180.094 60.7852C180.188 61.0742 180.234 61.4277 180.234 61.8457V66H179.145V61.834C179.145 61.502 179.096 61.2363 178.998 61.0371C178.9 60.834 178.758 60.6875 178.57 60.5977C178.383 60.5039 178.152 60.457 177.879 60.457C177.609 60.457 177.363 60.5137 177.141 60.627C176.922 60.7402 176.732 60.8965 176.572 61.0957C176.416 61.2949 176.293 61.5234 176.203 61.7812C176.117 62.0352 176.074 62.3047 176.074 62.5898ZM184.512 66.1172C184.07 66.1172 183.67 66.043 183.311 65.8945C182.955 65.7422 182.648 65.5293 182.391 65.2559C182.137 64.9824 181.941 64.6582 181.805 64.2832C181.668 63.9082 181.6 63.498 181.6 63.0527V62.8066C181.6 62.291 181.676 61.832 181.828 61.4297C181.98 61.0234 182.188 60.6797 182.449 60.3984C182.711 60.1172 183.008 59.9043 183.34 59.7598C183.672 59.6152 184.016 59.543 184.371 59.543C184.824 59.543 185.215 59.6211 185.543 59.7773C185.875 59.9336 186.146 60.1523 186.357 60.4336C186.568 60.7109 186.725 61.0391 186.826 61.418C186.928 61.793 186.979 62.2031 186.979 62.6484V63.1348H182.244V62.25H185.895V62.168C185.879 61.8867 185.82 61.6133 185.719 61.3477C185.621 61.082 185.465 60.8633 185.25 60.6914C185.035 60.5195 184.742 60.4336 184.371 60.4336C184.125 60.4336 183.898 60.4863 183.691 60.5918C183.484 60.6934 183.307 60.8457 183.158 61.0488C183.01 61.252 182.895 61.5 182.812 61.793C182.73 62.0859 182.689 62.4238 182.689 62.8066V63.0527C182.689 63.3535 182.73 63.6367 182.812 63.9023C182.898 64.1641 183.021 64.3945 183.182 64.5938C183.346 64.793 183.543 64.9492 183.773 65.0625C184.008 65.1758 184.273 65.2324 184.57 65.2324C184.953 65.2324 185.277 65.1543 185.543 64.998C185.809 64.8418 186.041 64.6328 186.24 64.3711L186.896 64.8926C186.76 65.0996 186.586 65.2969 186.375 65.4844C186.164 65.6719 185.904 65.8242 185.596 65.9414C185.291 66.0586 184.93 66.1172 184.512 66.1172ZM194.531 62.6543H192.252V61.7344H194.531C194.973 61.7344 195.33 61.6641 195.604 61.5234C195.877 61.3828 196.076 61.1875 196.201 60.9375C196.33 60.6875 196.395 60.4023 196.395 60.082C196.395 59.7891 196.33 59.5137 196.201 59.2559C196.076 58.998 195.877 58.791 195.604 58.6348C195.33 58.4746 194.973 58.3945 194.531 58.3945H192.516V66H191.385V57.4688H194.531C195.176 57.4688 195.721 57.5801 196.166 57.8027C196.611 58.0254 196.949 58.334 197.18 58.7285C197.41 59.1191 197.525 59.5664 197.525 60.0703C197.525 60.6172 197.41 61.084 197.18 61.4707C196.949 61.8574 196.611 62.1523 196.166 62.3555C195.721 62.5547 195.176 62.6543 194.531 62.6543ZM201.264 66H199.482L199.494 65.0801H201.264C201.873 65.0801 202.381 64.9531 202.787 64.6992C203.193 64.4414 203.498 64.082 203.701 63.6211C203.908 63.1562 204.012 62.6133 204.012 61.9922V61.4707C204.012 60.9824 203.953 60.5488 203.836 60.1699C203.719 59.7871 203.547 59.4648 203.32 59.2031C203.094 58.9375 202.816 58.7363 202.488 58.5996C202.164 58.4629 201.791 58.3945 201.369 58.3945H199.447V57.4688H201.369C201.928 57.4688 202.438 57.5625 202.898 57.75C203.359 57.9336 203.756 58.2012 204.088 58.5527C204.424 58.9004 204.682 59.3223 204.861 59.8184C205.041 60.3105 205.131 60.8652 205.131 61.4824V61.9922C205.131 62.6094 205.041 63.166 204.861 63.6621C204.682 64.1543 204.422 64.5742 204.082 64.9219C203.746 65.2695 203.34 65.5371 202.863 65.7246C202.391 65.9082 201.857 66 201.264 66ZM200.086 57.4688V66H198.955V57.4688H200.086ZM207.961 57.4688V66H206.83V57.4688H207.961ZM211.535 61.3066V62.2324H207.715V61.3066H211.535ZM212.115 57.4688V58.3945H207.715V57.4688H212.115ZM214.395 57V57.75C214.395 57.9844 214.354 58.2324 214.271 58.4941C214.193 58.752 214.078 59.002 213.926 59.2441C213.773 59.4824 213.59 59.6914 213.375 59.8711L212.754 59.4434C212.938 59.1855 213.076 58.9219 213.17 58.6523C213.268 58.3789 213.316 58.084 213.316 57.7676V57H214.395ZM218.736 64.3184C218.736 64.1621 218.701 64.0176 218.631 63.8848C218.564 63.748 218.426 63.625 218.215 63.5156C218.008 63.4023 217.695 63.3047 217.277 63.2227C216.926 63.1484 216.607 63.0605 216.322 62.959C216.041 62.8574 215.801 62.7344 215.602 62.5898C215.406 62.4453 215.256 62.2754 215.15 62.0801C215.045 61.8848 214.992 61.6562 214.992 61.3945C214.992 61.1445 215.047 60.9082 215.156 60.6855C215.27 60.4629 215.428 60.2656 215.631 60.0938C215.838 59.9219 216.086 59.7871 216.375 59.6895C216.664 59.5918 216.986 59.543 217.342 59.543C217.85 59.543 218.283 59.6328 218.643 59.8125C219.002 59.9922 219.277 60.2324 219.469 60.5332C219.66 60.8301 219.756 61.1602 219.756 61.5234H218.672C218.672 61.3477 218.619 61.1777 218.514 61.0137C218.412 60.8457 218.262 60.707 218.062 60.5977C217.867 60.4883 217.627 60.4336 217.342 60.4336C217.041 60.4336 216.797 60.4805 216.609 60.5742C216.426 60.6641 216.291 60.7793 216.205 60.9199C216.123 61.0605 216.082 61.209 216.082 61.3652C216.082 61.4824 216.102 61.5879 216.141 61.6816C216.184 61.7715 216.258 61.8555 216.363 61.9336C216.469 62.0078 216.617 62.0781 216.809 62.1445C217 62.2109 217.244 62.2773 217.541 62.3438C218.061 62.4609 218.488 62.6016 218.824 62.7656C219.16 62.9297 219.41 63.1309 219.574 63.3691C219.738 63.6074 219.82 63.8965 219.82 64.2363C219.82 64.5137 219.762 64.7676 219.645 64.998C219.531 65.2285 219.365 65.4277 219.146 65.5957C218.932 65.7598 218.674 65.8887 218.373 65.9824C218.076 66.0723 217.742 66.1172 217.371 66.1172C216.812 66.1172 216.34 66.0176 215.953 65.8184C215.566 65.6191 215.273 65.3613 215.074 65.0449C214.875 64.7285 214.775 64.3945 214.775 64.043H215.865C215.881 64.3398 215.967 64.5762 216.123 64.752C216.279 64.9238 216.471 65.0469 216.697 65.1211C216.924 65.1914 217.148 65.2266 217.371 65.2266C217.668 65.2266 217.916 65.1875 218.115 65.1094C218.318 65.0312 218.473 64.9238 218.578 64.7871C218.684 64.6504 218.736 64.4941 218.736 64.3184Z" fill="black"/>
<path d="M182.321 23C183.958 23 185.497 23.5781 186.652 24.623L189.706 27.3857C190.861 28.4307 191.5 29.8243 191.5 31.3047V38.042C191.5 40.189 189.607 41.9371 187.25 41.9971V40.4102C188.636 40.3505 189.75 39.3101 189.75 38.042V31.3047C189.75 31.1702 189.75 31.0436 189.732 30.917H185.375C183.931 30.917 182.75 29.8481 182.75 28.542V24.5996C182.61 24.5838 182.461 24.583 182.321 24.583H178.375C176.931 24.583 175.75 25.6519 175.75 26.958C175.75 26.9719 175.75 26.9861 175.75 27H174C174 26.9861 174 26.9719 174 26.958C174 24.7732 175.96 23 178.375 23H182.321ZM184.509 28.542C184.509 28.9773 184.903 29.333 185.384 29.333H189.182C188.989 29.0322 188.753 28.7553 188.473 28.502L188.481 28.5098L185.428 25.7471C185.148 25.4937 184.841 25.2796 184.509 25.1055V28.542Z" fill="#FF3B30"/>
<path d="M183.706 32.3858L180.652 29.6229C179.497 28.5779 177.958 28 176.321 28H172.375C169.96 28 168 29.7733 168 31.9583V43.0417C168 45.2267 169.96 47 172.375 47H181.125C183.54 47 185.5 45.2267 185.5 43.0417V36.3046C185.5 34.8242 184.861 33.4308 183.706 32.3858ZM182.473 33.5021C182.753 33.7554 182.989 34.0325 183.181 34.3333H179.384C178.903 34.3333 178.509 33.9771 178.509 33.5417V30.1058C178.841 30.28 179.148 30.4938 179.428 30.7471L182.481 33.51L182.473 33.5021ZM183.75 43.0417C183.75 44.3479 182.569 45.4167 181.125 45.4167H172.375C170.931 45.4167 169.75 44.3479 169.75 43.0417V31.9583C169.75 30.6521 170.931 29.5833 172.375 29.5833H176.321C176.461 29.5833 176.61 29.5833 176.75 29.5992V33.5417C176.75 34.8479 177.931 35.9167 179.375 35.9167H183.733C183.75 36.0433 183.75 36.17 183.75 36.3046V43.0417Z" fill="#FF3B30"/>
<rect x="20" y="16" width="100" height="74" rx="8" fill="white"/>
<path d="M42.3613 63.2871H43.4863C43.4277 63.8262 43.2734 64.3086 43.0234 64.7344C42.7734 65.1602 42.4199 65.498 41.9629 65.748C41.5059 65.9941 40.9355 66.1172 40.252 66.1172C39.752 66.1172 39.2969 66.0234 38.8867 65.8359C38.4805 65.6484 38.1309 65.3828 37.8379 65.0391C37.5449 64.6914 37.3184 64.2754 37.1582 63.791C37.002 63.3027 36.9238 62.7598 36.9238 62.1621V61.3125C36.9238 60.7148 37.002 60.1738 37.1582 59.6895C37.3184 59.2012 37.5469 58.7832 37.8438 58.4355C38.1445 58.0879 38.5059 57.8203 38.9277 57.6328C39.3496 57.4453 39.8242 57.3516 40.3516 57.3516C40.9961 57.3516 41.541 57.4727 41.9863 57.7148C42.4316 57.957 42.7773 58.293 43.0234 58.7227C43.2734 59.1484 43.4277 59.6426 43.4863 60.2051H42.3613C42.3066 59.8066 42.2051 59.4648 42.0566 59.1797C41.9082 58.8906 41.6973 58.668 41.4238 58.5117C41.1504 58.3555 40.793 58.2773 40.3516 58.2773C39.9727 58.2773 39.6387 58.3496 39.3496 58.4941C39.0645 58.6387 38.8242 58.8438 38.6289 59.1094C38.4375 59.375 38.293 59.6934 38.1953 60.0645C38.0977 60.4355 38.0488 60.8477 38.0488 61.3008V62.1621C38.0488 62.5801 38.0918 62.9727 38.1777 63.3398C38.2676 63.707 38.4023 64.0293 38.582 64.3066C38.7617 64.584 38.9902 64.8027 39.2676 64.9629C39.5449 65.1191 39.873 65.1973 40.252 65.1973C40.7324 65.1973 41.1152 65.1211 41.4004 64.9688C41.6855 64.8164 41.9004 64.5977 42.0449 64.3125C42.1934 64.0273 42.2988 63.6855 42.3613 63.2871ZM45.9473 60.6562V66H44.8633V59.6602H45.918L45.9473 60.6562ZM47.9277 59.625L47.9219 60.6328C47.832 60.6133 47.7461 60.6016 47.6641 60.5977C47.5859 60.5898 47.4961 60.5859 47.3945 60.5859C47.1445 60.5859 46.9238 60.625 46.7324 60.7031C46.541 60.7812 46.3789 60.8906 46.2461 61.0312C46.1133 61.1719 46.0078 61.3398 45.9297 61.5352C45.8555 61.7266 45.8066 61.9375 45.7832 62.168L45.4785 62.3438C45.4785 61.9609 45.5156 61.6016 45.5898 61.2656C45.668 60.9297 45.7871 60.6328 45.9473 60.375C46.1074 60.1133 46.3105 59.9102 46.5566 59.7656C46.8066 59.6172 47.1035 59.543 47.4473 59.543C47.5254 59.543 47.6152 59.5527 47.7168 59.5723C47.8184 59.5879 47.8887 59.6055 47.9277 59.625ZM51.4434 66.1172C51.002 66.1172 50.6016 66.043 50.2422 65.8945C49.8867 65.7422 49.5801 65.5293 49.3223 65.2559C49.0684 64.9824 48.873 64.6582 48.7363 64.2832C48.5996 63.9082 48.5312 63.498 48.5312 63.0527V62.8066C48.5312 62.291 48.6074 61.832 48.7598 61.4297C48.9121 61.0234 49.1191 60.6797 49.3809 60.3984C49.6426 60.1172 49.9395 59.9043 50.2715 59.7598C50.6035 59.6152 50.9473 59.543 51.3027 59.543C51.7559 59.543 52.1465 59.6211 52.4746 59.7773C52.8066 59.9336 53.0781 60.1523 53.2891 60.4336C53.5 60.7109 53.6562 61.0391 53.7578 61.418C53.8594 61.793 53.9102 62.2031 53.9102 62.6484V63.1348H49.1758V62.25H52.8262V62.168C52.8105 61.8867 52.752 61.6133 52.6504 61.3477C52.5527 61.082 52.3965 60.8633 52.1816 60.6914C51.9668 60.5195 51.6738 60.4336 51.3027 60.4336C51.0566 60.4336 50.8301 60.4863 50.623 60.5918C50.416 60.6934 50.2383 60.8457 50.0898 61.0488C49.9414 61.252 49.8262 61.5 49.7441 61.793C49.6621 62.0859 49.6211 62.4238 49.6211 62.8066V63.0527C49.6211 63.3535 49.6621 63.6367 49.7441 63.9023C49.8301 64.1641 49.9531 64.3945 50.1133 64.5938C50.2773 64.793 50.4746 64.9492 50.7051 65.0625C50.9395 65.1758 51.2051 65.2324 51.502 65.2324C51.8848 65.2324 52.209 65.1543 52.4746 64.998C52.7402 64.8418 52.9727 64.6328 53.1719 64.3711L53.8281 64.8926C53.6914 65.0996 53.5176 65.2969 53.3066 65.4844C53.0957 65.6719 52.8359 65.8242 52.5273 65.9414C52.2227 66.0586 51.8613 66.1172 51.4434 66.1172ZM58.9141 64.916V61.6523C58.9141 61.4023 58.8633 61.1855 58.7617 61.002C58.6641 60.8145 58.5156 60.6699 58.3164 60.5684C58.1172 60.4668 57.8711 60.416 57.5781 60.416C57.3047 60.416 57.0645 60.4629 56.8574 60.5566C56.6543 60.6504 56.4941 60.7734 56.377 60.9258C56.2637 61.0781 56.207 61.2422 56.207 61.418H55.123C55.123 61.1914 55.1816 60.9668 55.2988 60.7441C55.416 60.5215 55.584 60.3203 55.8027 60.1406C56.0254 59.957 56.291 59.8125 56.5996 59.707C56.9121 59.5977 57.2598 59.543 57.6426 59.543C58.1035 59.543 58.5098 59.6211 58.8613 59.7773C59.2168 59.9336 59.4941 60.1699 59.6934 60.4863C59.8965 60.7988 59.998 61.1914 59.998 61.6641V64.6172C59.998 64.8281 60.0156 65.0527 60.0508 65.291C60.0898 65.5293 60.1465 65.7344 60.2207 65.9062V66H59.0898C59.0352 65.875 58.9922 65.709 58.9609 65.502C58.9297 65.291 58.9141 65.0957 58.9141 64.916ZM59.1016 62.1562L59.1133 62.918H58.0176C57.709 62.918 57.4336 62.9434 57.1914 62.9941C56.9492 63.041 56.7461 63.1133 56.582 63.2109C56.418 63.3086 56.293 63.4316 56.207 63.5801C56.1211 63.7246 56.0781 63.8945 56.0781 64.0898C56.0781 64.2891 56.123 64.4707 56.2129 64.6348C56.3027 64.7988 56.4375 64.9297 56.6172 65.0273C56.8008 65.1211 57.0254 65.168 57.291 65.168C57.623 65.168 57.916 65.0977 58.1699 64.957C58.4238 64.8164 58.625 64.6445 58.7734 64.4414C58.9258 64.2383 59.0078 64.041 59.0195 63.8496L59.4824 64.3711C59.4551 64.5352 59.3809 64.7168 59.2598 64.916C59.1387 65.1152 58.9766 65.3066 58.7734 65.4902C58.5742 65.6699 58.3359 65.8203 58.0586 65.9414C57.7852 66.0586 57.4766 66.1172 57.1328 66.1172C56.7031 66.1172 56.3262 66.0332 56.002 65.8652C55.6816 65.6973 55.4316 65.4727 55.252 65.1914C55.0762 64.9062 54.9883 64.5879 54.9883 64.2363C54.9883 63.8965 55.0547 63.5977 55.1875 63.3398C55.3203 63.0781 55.5117 62.8613 55.7617 62.6895C56.0117 62.5137 56.3125 62.3809 56.6641 62.291C57.0156 62.2012 57.4082 62.1562 57.8418 62.1562H59.1016ZM64.3574 59.6602V60.4922H60.9297V59.6602H64.3574ZM62.0898 58.1191H63.1738V64.4297C63.1738 64.6445 63.207 64.8066 63.2734 64.916C63.3398 65.0254 63.4258 65.0977 63.5312 65.1328C63.6367 65.168 63.75 65.1855 63.8711 65.1855C63.9609 65.1855 64.0547 65.1777 64.1523 65.1621C64.2539 65.1426 64.3301 65.127 64.3809 65.1152L64.3867 66C64.3008 66.0273 64.1875 66.0527 64.0469 66.0762C63.9102 66.1035 63.7441 66.1172 63.5488 66.1172C63.2832 66.1172 63.0391 66.0645 62.8164 65.959C62.5938 65.8535 62.416 65.6777 62.2832 65.4316C62.1543 65.1816 62.0898 64.8457 62.0898 64.4238V58.1191ZM68.2598 66.1172C67.8184 66.1172 67.418 66.043 67.0586 65.8945C66.7031 65.7422 66.3965 65.5293 66.1387 65.2559C65.8848 64.9824 65.6895 64.6582 65.5527 64.2832C65.416 63.9082 65.3477 63.498 65.3477 63.0527V62.8066C65.3477 62.291 65.4238 61.832 65.5762 61.4297C65.7285 61.0234 65.9355 60.6797 66.1973 60.3984C66.459 60.1172 66.7559 59.9043 67.0879 59.7598C67.4199 59.6152 67.7637 59.543 68.1191 59.543C68.5723 59.543 68.9629 59.6211 69.291 59.7773C69.623 59.9336 69.8945 60.1523 70.1055 60.4336C70.3164 60.7109 70.4727 61.0391 70.5742 61.418C70.6758 61.793 70.7266 62.2031 70.7266 62.6484V63.1348H65.9922V62.25H69.6426V62.168C69.627 61.8867 69.5684 61.6133 69.4668 61.3477C69.3691 61.082 69.2129 60.8633 68.998 60.6914C68.7832 60.5195 68.4902 60.4336 68.1191 60.4336C67.873 60.4336 67.6465 60.4863 67.4395 60.5918C67.2324 60.6934 67.0547 60.8457 66.9062 61.0488C66.7578 61.252 66.6426 61.5 66.5605 61.793C66.4785 62.0859 66.4375 62.4238 66.4375 62.8066V63.0527C66.4375 63.3535 66.4785 63.6367 66.5605 63.9023C66.6465 64.1641 66.7695 64.3945 66.9297 64.5938C67.0938 64.793 67.291 64.9492 67.5215 65.0625C67.7559 65.1758 68.0215 65.2324 68.3184 65.2324C68.7012 65.2324 69.0254 65.1543 69.291 64.998C69.5566 64.8418 69.7891 64.6328 69.9883 64.3711L70.6445 64.8926C70.5078 65.0996 70.334 65.2969 70.123 65.4844C69.9121 65.6719 69.6523 65.8242 69.3438 65.9414C69.0391 66.0586 68.6777 66.1172 68.2598 66.1172ZM78.1738 62.0098H76.0117L76 61.1016H77.9629C78.2871 61.1016 78.5703 61.0469 78.8125 60.9375C79.0547 60.8281 79.2422 60.6719 79.375 60.4688C79.5117 60.2617 79.5801 60.0156 79.5801 59.7305C79.5801 59.418 79.5195 59.1641 79.3984 58.9688C79.2812 58.7695 79.0996 58.625 78.8535 58.5352C78.6113 58.4414 78.3027 58.3945 77.9277 58.3945H76.2637V66H75.1328V57.4688H77.9277C78.3652 57.4688 78.7559 57.5137 79.0996 57.6035C79.4434 57.6895 79.7344 57.8262 79.9727 58.0137C80.2148 58.1973 80.3984 58.4316 80.5234 58.7168C80.6484 59.002 80.7109 59.3438 80.7109 59.7422C80.7109 60.0938 80.6211 60.4121 80.4414 60.6973C80.2617 60.9785 80.0117 61.209 79.6914 61.3887C79.375 61.5684 79.0039 61.6836 78.5781 61.7344L78.1738 62.0098ZM78.1211 66H75.5664L76.2051 65.0801H78.1211C78.4805 65.0801 78.7852 65.0176 79.0352 64.8926C79.2891 64.7676 79.4824 64.5918 79.6152 64.3652C79.748 64.1348 79.8145 63.8633 79.8145 63.5508C79.8145 63.2344 79.7578 62.9609 79.6445 62.7305C79.5312 62.5 79.3535 62.3223 79.1113 62.1973C78.8691 62.0723 78.5566 62.0098 78.1738 62.0098H76.5625L76.5742 61.1016H78.7773L79.0176 61.4297C79.4277 61.4648 79.7754 61.582 80.0605 61.7812C80.3457 61.9766 80.5625 62.2266 80.7109 62.5312C80.8633 62.8359 80.9395 63.1719 80.9395 63.5391C80.9395 64.0703 80.8223 64.5195 80.5879 64.8867C80.3574 65.25 80.0312 65.5273 79.6094 65.7188C79.1875 65.9062 78.6914 66 78.1211 66ZM83.623 57V66H82.5332V57H83.623ZM89.1016 64.916V61.6523C89.1016 61.4023 89.0508 61.1855 88.9492 61.002C88.8516 60.8145 88.7031 60.6699 88.5039 60.5684C88.3047 60.4668 88.0586 60.416 87.7656 60.416C87.4922 60.416 87.252 60.4629 87.0449 60.5566C86.8418 60.6504 86.6816 60.7734 86.5645 60.9258C86.4512 61.0781 86.3945 61.2422 86.3945 61.418H85.3105C85.3105 61.1914 85.3691 60.9668 85.4863 60.7441C85.6035 60.5215 85.7715 60.3203 85.9902 60.1406C86.2129 59.957 86.4785 59.8125 86.7871 59.707C87.0996 59.5977 87.4473 59.543 87.8301 59.543C88.291 59.543 88.6973 59.6211 89.0488 59.7773C89.4043 59.9336 89.6816 60.1699 89.8809 60.4863C90.084 60.7988 90.1855 61.1914 90.1855 61.6641V64.6172C90.1855 64.8281 90.2031 65.0527 90.2383 65.291C90.2773 65.5293 90.334 65.7344 90.4082 65.9062V66H89.2773C89.2227 65.875 89.1797 65.709 89.1484 65.502C89.1172 65.291 89.1016 65.0957 89.1016 64.916ZM89.2891 62.1562L89.3008 62.918H88.2051C87.8965 62.918 87.6211 62.9434 87.3789 62.9941C87.1367 63.041 86.9336 63.1133 86.7695 63.2109C86.6055 63.3086 86.4805 63.4316 86.3945 63.5801C86.3086 63.7246 86.2656 63.8945 86.2656 64.0898C86.2656 64.2891 86.3105 64.4707 86.4004 64.6348C86.4902 64.7988 86.625 64.9297 86.8047 65.0273C86.9883 65.1211 87.2129 65.168 87.4785 65.168C87.8105 65.168 88.1035 65.0977 88.3574 64.957C88.6113 64.8164 88.8125 64.6445 88.9609 64.4414C89.1133 64.2383 89.1953 64.041 89.207 63.8496L89.6699 64.3711C89.6426 64.5352 89.5684 64.7168 89.4473 64.916C89.3262 65.1152 89.1641 65.3066 88.9609 65.4902C88.7617 65.6699 88.5234 65.8203 88.2461 65.9414C87.9727 66.0586 87.6641 66.1172 87.3203 66.1172C86.8906 66.1172 86.5137 66.0332 86.1895 65.8652C85.8691 65.6973 85.6191 65.4727 85.4395 65.1914C85.2637 64.9062 85.1758 64.5879 85.1758 64.2363C85.1758 63.8965 85.2422 63.5977 85.375 63.3398C85.5078 63.0781 85.6992 62.8613 85.9492 62.6895C86.1992 62.5137 86.5 62.3809 86.8516 62.291C87.2031 62.2012 87.5957 62.1562 88.0293 62.1562H89.2891ZM92.9746 61.0137V66H91.8906V59.6602H92.916L92.9746 61.0137ZM92.7168 62.5898L92.2656 62.5723C92.2695 62.1387 92.334 61.7383 92.459 61.3711C92.584 61 92.7598 60.6777 92.9863 60.4043C93.2129 60.1309 93.4824 59.9199 93.7949 59.7715C94.1113 59.6191 94.4609 59.543 94.8438 59.543C95.1562 59.543 95.4375 59.5859 95.6875 59.6719C95.9375 59.7539 96.1504 59.8867 96.3262 60.0703C96.5059 60.2539 96.6426 60.4922 96.7363 60.7852C96.8301 61.0742 96.877 61.4277 96.877 61.8457V66H95.7871V61.834C95.7871 61.502 95.7383 61.2363 95.6406 61.0371C95.543 60.834 95.4004 60.6875 95.2129 60.5977C95.0254 60.5039 94.7949 60.457 94.5215 60.457C94.252 60.457 94.0059 60.5137 93.7832 60.627C93.5645 60.7402 93.375 60.8965 93.2148 61.0957C93.0586 61.2949 92.9355 61.5234 92.8457 61.7812C92.7598 62.0352 92.7168 62.3047 92.7168 62.5898ZM99.6133 57V66H98.5234V57H99.6133ZM103.486 59.6602L100.721 62.6191L99.1738 64.2246L99.0859 63.0703L100.193 61.7461L102.162 59.6602H103.486ZM102.496 66L100.234 62.9766L100.797 62.0098L103.773 66H102.496Z" fill="black"/>
<path d="M77.2063 30.3858L74.1525 27.6229C72.9975 26.5779 71.4575 26 69.8212 26H65.875C63.46 26 61.5 27.7733 61.5 29.9583V41.0417C61.5 43.2267 63.46 45 65.875 45H74.625C77.04 45 79 43.2267 79 41.0417V34.3046C79 32.8242 78.3613 31.4308 77.2063 30.3858ZM75.9725 31.5021C76.2525 31.7554 76.4888 32.0325 76.6813 32.3333H72.8837C72.4025 32.3333 72.0087 31.9771 72.0087 31.5417V28.1058C72.3412 28.28 72.6475 28.4938 72.9275 28.7471L75.9812 31.51L75.9725 31.5021ZM77.25 41.0417C77.25 42.3479 76.0688 43.4167 74.625 43.4167H65.875C64.4313 43.4167 63.25 42.3479 63.25 41.0417V29.9583C63.25 28.6521 64.4313 27.5833 65.875 27.5833H69.8212C69.9613 27.5833 70.11 27.5833 70.25 27.5992V31.5417C70.25 32.8479 71.4312 33.9167 72.875 33.9167H77.2325C77.25 34.0433 77.25 34.17 77.25 34.3046V41.0417Z" fill="#FF3B30"/>
</g>
<defs>
<filter id="filter0_d_1128_6061" x="0" y="0" width="250" height="114" filterUnits="userSpaceOnUse" color-interpolation-filters="sRGB">
<feFlood flood-opacity="0" result="BackgroundImageFix"/>
<feColorMatrix in="SourceAlpha" type="matrix" values="0 0 0 0 0 0 0 0 0 0 0 0 0 0 0 0 0 0 127 0" result="hardAlpha"/>
<feOffset dy="4"/>
<feGaussianBlur stdDeviation="10"/>
<feComposite in2="hardAlpha" operator="out"/>
<feColorMatrix type="matrix" values="0 0 0 0 0 0 0 0 0 0 0 0 0 0 0 0 0 0 0.25 0"/>
<feBlend mode="normal" in2="BackgroundImageFix" result="effect1_dropShadow_1128_6061"/>
<feBlend mode="normal" in="SourceGraphic" in2="effect1_dropShadow_1128_6061" result="shape"/>
</filter>
</defs>
</svg>
