<svg width="180" height="85" viewBox="0 0 180 85" fill="none" xmlns="http://www.w3.org/2000/svg">
<rect x="24" y="19" width="130" height="47" rx="9" fill="#C1F1CD" stroke="#0D4C1D" stroke-width="2"/>
<path d="M61.6875 38.2422L56.7266 48H54.6484L60.7734 36.625H62.1094L61.6875 38.2422ZM62.7656 48L61.1562 38.0312L61.2734 36.625H62.5156L64.7109 48H62.7656ZM63.3203 43.7812L63.0469 45.3359H57.0312L57.3047 43.7812H63.3203ZM68.6719 41.2812L66.9375 51.25H65.0938L67.125 39.5469H68.8203L68.6719 41.2812ZM73.5781 43.6484L73.5625 43.8125C73.5 44.3229 73.3776 44.8385 73.1953 45.3594C73.0182 45.875 72.776 46.349 72.4688 46.7812C72.1667 47.2083 71.7943 47.5495 71.3516 47.8047C70.9089 48.0599 70.388 48.1797 69.7891 48.1641C69.263 48.1536 68.8203 48.0286 68.4609 47.7891C68.1016 47.5443 67.8151 47.2266 67.6016 46.8359C67.388 46.4453 67.237 46.0182 67.1484 45.5547C67.0651 45.0859 67.0339 44.6224 67.0547 44.1641L67.1328 43.5391C67.2161 43.0443 67.3568 42.5495 67.5547 42.0547C67.7578 41.5599 68.0182 41.1094 68.3359 40.7031C68.6536 40.2917 69.0312 39.9661 69.4688 39.7266C69.9062 39.487 70.4089 39.375 70.9766 39.3906C71.5547 39.4062 72.026 39.5443 72.3906 39.8047C72.7552 40.0651 73.0312 40.4036 73.2188 40.8203C73.4115 41.237 73.5312 41.6927 73.5781 42.1875C73.6302 42.6823 73.6302 43.1693 73.5781 43.6484ZM71.7188 43.8047L71.7422 43.6328C71.7682 43.3672 71.776 43.0781 71.7656 42.7656C71.7604 42.4531 71.7161 42.1589 71.6328 41.8828C71.5495 41.6016 71.4062 41.3698 71.2031 41.1875C71.0052 41.0052 70.7292 40.9089 70.375 40.8984C70.0521 40.8828 69.7604 40.9349 69.5 41.0547C69.2396 41.1693 69.0104 41.3307 68.8125 41.5391C68.6146 41.7474 68.4479 41.9844 68.3125 42.25C68.1823 42.5156 68.0885 42.7917 68.0312 43.0781L67.7891 44.6094C67.7734 44.9531 67.8203 45.2812 67.9297 45.5938C68.0443 45.901 68.2214 46.1536 68.4609 46.3516C68.7057 46.5495 69.0156 46.6536 69.3906 46.6641C69.776 46.6745 70.1068 46.5938 70.3828 46.4219C70.6589 46.25 70.888 46.0208 71.0703 45.7344C71.2526 45.4427 71.3958 45.1276 71.5 44.7891C71.6094 44.4453 71.6823 44.1172 71.7188 43.8047ZM77.4062 41.2812L75.6719 51.25H73.8281L75.8594 39.5469H77.5547L77.4062 41.2812ZM82.3125 43.6484L82.2969 43.8125C82.2344 44.3229 82.112 44.8385 81.9297 45.3594C81.7526 45.875 81.5104 46.349 81.2031 46.7812C80.901 47.2083 80.5286 47.5495 80.0859 47.8047C79.6432 48.0599 79.1224 48.1797 78.5234 48.1641C77.9974 48.1536 77.5547 48.0286 77.1953 47.7891C76.8359 47.5443 76.5495 47.2266 76.3359 46.8359C76.1224 46.4453 75.9714 46.0182 75.8828 45.5547C75.7995 45.0859 75.7682 44.6224 75.7891 44.1641L75.8672 43.5391C75.9505 43.0443 76.0911 42.5495 76.2891 42.0547C76.4922 41.5599 76.7526 41.1094 77.0703 40.7031C77.388 40.2917 77.7656 39.9661 78.2031 39.7266C78.6406 39.487 79.1432 39.375 79.7109 39.3906C80.2891 39.4062 80.7604 39.5443 81.125 39.8047C81.4896 40.0651 81.7656 40.4036 81.9531 40.8203C82.1458 41.237 82.2656 41.6927 82.3125 42.1875C82.3646 42.6823 82.3646 43.1693 82.3125 43.6484ZM80.4531 43.8047L80.4766 43.6328C80.5026 43.3672 80.5104 43.0781 80.5 42.7656C80.4948 42.4531 80.4505 42.1589 80.3672 41.8828C80.2839 41.6016 80.1406 41.3698 79.9375 41.1875C79.7396 41.0052 79.4635 40.9089 79.1094 40.8984C78.7865 40.8828 78.4948 40.9349 78.2344 41.0547C77.974 41.1693 77.7448 41.3307 77.5469 41.5391C77.349 41.7474 77.1823 41.9844 77.0469 42.25C76.9167 42.5156 76.8229 42.7917 76.7656 43.0781L76.5234 44.6094C76.5078 44.9531 76.5547 45.2812 76.6641 45.5938C76.7786 45.901 76.9557 46.1536 77.1953 46.3516C77.4401 46.5495 77.75 46.6536 78.125 46.6641C78.5104 46.6745 78.8411 46.5938 79.1172 46.4219C79.3932 46.25 79.6224 46.0208 79.8047 45.7344C79.987 45.4427 80.1302 45.1276 80.2344 44.7891C80.3438 44.4453 80.4167 44.1172 80.4531 43.8047ZM86.1406 41.25L84.9688 48H83.1328L84.6016 39.5469H86.3438L86.1406 41.25ZM88.8906 39.4766L88.6875 41.2344C88.5677 41.2135 88.4453 41.1953 88.3203 41.1797C88.2005 41.1641 88.0807 41.1562 87.9609 41.1562C87.6432 41.151 87.3568 41.1953 87.1016 41.2891C86.8464 41.3828 86.6224 41.5182 86.4297 41.6953C86.237 41.8672 86.0755 42.0755 85.9453 42.3203C85.8151 42.5599 85.7135 42.8281 85.6406 43.125L85.2031 43.1562C85.2552 42.7448 85.3438 42.3177 85.4688 41.875C85.599 41.4323 85.7786 41.0208 86.0078 40.6406C86.237 40.2552 86.5286 39.9453 86.8828 39.7109C87.237 39.4714 87.6667 39.3568 88.1719 39.3672C88.2917 39.3672 88.4115 39.3776 88.5312 39.3984C88.651 39.4193 88.7708 39.4453 88.8906 39.4766ZM88.7891 43.9141L88.8125 43.7344C88.875 43.151 89.0182 42.5964 89.2422 42.0703C89.4661 41.5443 89.763 41.0781 90.1328 40.6719C90.5078 40.2604 90.9479 39.9401 91.4531 39.7109C91.9635 39.4818 92.5312 39.375 93.1562 39.3906C93.7604 39.401 94.2786 39.526 94.7109 39.7656C95.1484 40.0052 95.5026 40.3255 95.7734 40.7266C96.0495 41.1224 96.2422 41.5755 96.3516 42.0859C96.4609 42.5911 96.4896 43.1198 96.4375 43.6719L96.4219 43.8516C96.3542 44.4349 96.2057 44.987 95.9766 45.5078C95.7526 46.0286 95.4531 46.4922 95.0781 46.8984C94.7083 47.2995 94.2682 47.6146 93.7578 47.8438C93.2526 48.0677 92.6901 48.1719 92.0703 48.1562C91.4714 48.1458 90.9531 48.0234 90.5156 47.7891C90.0833 47.5495 89.7292 47.2318 89.4531 46.8359C89.1823 46.4401 88.9922 45.9922 88.8828 45.4922C88.7734 44.987 88.7422 44.4609 88.7891 43.9141ZM90.6406 43.7344L90.625 43.9141C90.599 44.2005 90.5964 44.5026 90.6172 44.8203C90.638 45.138 90.7005 45.4349 90.8047 45.7109C90.9089 45.987 91.0703 46.2135 91.2891 46.3906C91.5078 46.5677 91.7995 46.6615 92.1641 46.6719C92.5495 46.6823 92.8854 46.6042 93.1719 46.4375C93.4583 46.2708 93.6979 46.0469 93.8906 45.7656C94.0833 45.4844 94.237 45.1771 94.3516 44.8438C94.4661 44.5052 94.5417 44.1745 94.5781 43.8516L94.5938 43.6719C94.625 43.3906 94.6302 43.0911 94.6094 42.7734C94.5885 42.4505 94.526 42.1484 94.4219 41.8672C94.3177 41.5807 94.1562 41.349 93.9375 41.1719C93.7188 40.9896 93.4271 40.8932 93.0625 40.8828C92.6719 40.8724 92.3333 40.9531 92.0469 41.125C91.7604 41.2917 91.5208 41.5182 91.3281 41.8047C91.1354 42.0911 90.9818 42.4036 90.8672 42.7422C90.7578 43.0807 90.6823 43.4115 90.6406 43.7344ZM100.078 46.4297L103.141 39.5469H105.109L100.93 48H99.7031L100.078 46.4297ZM99.6016 39.5469L100.57 46.625L100.445 48H99.2969L97.75 39.5469H99.6016ZM108.484 48.1562C107.906 48.1458 107.393 48.0339 106.945 47.8203C106.503 47.6016 106.135 47.3073 105.844 46.9375C105.552 46.5625 105.341 46.1328 105.211 45.6484C105.081 45.1589 105.036 44.638 105.078 44.0859L105.109 43.7656C105.167 43.1979 105.305 42.651 105.523 42.125C105.742 41.5938 106.034 41.1224 106.398 40.7109C106.768 40.2943 107.203 39.9661 107.703 39.7266C108.203 39.487 108.76 39.375 109.375 39.3906C109.964 39.401 110.461 39.5234 110.867 39.7578C111.273 39.9922 111.596 40.3047 111.836 40.6953C112.076 41.0807 112.234 41.5182 112.312 42.0078C112.396 42.4974 112.409 43.0052 112.352 43.5312L112.242 44.3359H105.898L106.117 42.9844L110.594 42.9922L110.625 42.8281C110.672 42.5 110.654 42.1901 110.57 41.8984C110.492 41.6068 110.346 41.3672 110.133 41.1797C109.919 40.9922 109.633 40.8932 109.273 40.8828C108.883 40.8724 108.547 40.9531 108.266 41.125C107.99 41.2969 107.76 41.5286 107.578 41.8203C107.396 42.112 107.253 42.4297 107.148 42.7734C107.049 43.112 106.979 43.4427 106.938 43.7656L106.906 44.0781C106.875 44.3854 106.883 44.6901 106.93 44.9922C106.977 45.2943 107.068 45.5703 107.203 45.8203C107.339 46.0651 107.526 46.2656 107.766 46.4219C108.005 46.5729 108.302 46.6536 108.656 46.6641C109.099 46.6745 109.5 46.5833 109.859 46.3906C110.224 46.1927 110.555 45.9375 110.852 45.625L111.758 46.5859C111.518 46.9453 111.221 47.2422 110.867 47.4766C110.518 47.7109 110.138 47.8854 109.727 48C109.32 48.1094 108.906 48.1615 108.484 48.1562ZM118.32 46.1406L120.078 36H121.93L119.844 48H118.188L118.32 46.1406ZM113.383 43.9297L113.398 43.7656C113.466 43.2448 113.589 42.724 113.766 42.2031C113.948 41.6823 114.193 41.2057 114.5 40.7734C114.812 40.3411 115.193 39.9974 115.641 39.7422C116.094 39.487 116.625 39.3672 117.234 39.3828C117.766 39.3984 118.208 39.5365 118.562 39.7969C118.917 40.0573 119.193 40.3932 119.391 40.8047C119.594 41.2161 119.732 41.6615 119.805 42.1406C119.878 42.6146 119.901 43.0781 119.875 43.5312L119.812 44.0625C119.729 44.5417 119.589 45.026 119.391 45.5156C119.193 46.0052 118.935 46.4531 118.617 46.8594C118.305 47.2656 117.93 47.5885 117.492 47.8281C117.06 48.0677 116.565 48.1797 116.008 48.1641C115.451 48.1432 114.99 48.0026 114.625 47.7422C114.26 47.4766 113.979 47.1354 113.781 46.7188C113.583 46.2969 113.456 45.8438 113.398 45.3594C113.341 44.8698 113.336 44.3932 113.383 43.9297ZM115.258 43.75L115.242 43.9141C115.211 44.1849 115.198 44.474 115.203 44.7812C115.208 45.0885 115.25 45.3828 115.328 45.6641C115.411 45.9401 115.549 46.1693 115.742 46.3516C115.94 46.5339 116.216 46.6328 116.57 46.6484C116.982 46.6641 117.346 46.5703 117.664 46.3672C117.987 46.1641 118.255 45.8984 118.469 45.5703C118.682 45.2422 118.833 44.8932 118.922 44.5234L119.141 43.0938C119.156 42.8333 119.138 42.5755 119.086 42.3203C119.039 42.0651 118.953 41.8333 118.828 41.625C118.703 41.4167 118.536 41.2474 118.328 41.1172C118.125 40.9818 117.878 40.9115 117.586 40.9062C117.201 40.8906 116.867 40.9688 116.586 41.1406C116.31 41.3125 116.081 41.5417 115.898 41.8281C115.721 42.1146 115.581 42.4271 115.477 42.7656C115.372 43.1042 115.299 43.4323 115.258 43.75Z" fill="#0D4C1D"/>
<rect x="7" y="7" width="165" height="71" stroke="#0A84FF" stroke-width="2" stroke-dasharray="4 4"/>
<circle cx="7.5" cy="7.5" r="7" fill="white" stroke="#007AFF"/>
<circle cx="7.5" cy="7.5" r="4.5" fill="#007AFF"/>
<circle cx="7.5" cy="77.5" r="7" fill="white" stroke="#007AFF"/>
<circle cx="7.5" cy="77.5" r="4.5" fill="#007AFF"/>
<circle cx="172.5" cy="7.5" r="7" fill="white" stroke="#007AFF"/>
<circle cx="172.5" cy="7.5" r="4.5" fill="#007AFF"/>
<circle cx="172.5" cy="77.5" r="7" fill="white" stroke="#007AFF"/>
<circle cx="172.5" cy="77.5" r="4.5" fill="#007AFF"/>
</svg>
