<svg width="24" height="24" viewBox="0 0 24 24" fill="none" xmlns="http://www.w3.org/2000/svg">
<path d="M4.3976 12.6349C4.9562 12.5499 5.4523 12.9328 5.5324 13.4787C5.7336 14.8498 6.3664 16.1008 7.3625 17.0969C9.8977 19.6321 14.0197 19.6301 16.5539 17.0969C19.0876 14.5627 19.0876 10.4392 16.5539 7.90546C15.6008 6.95286 14.3976 6.33176 13.051 6.10566C12.4719 5.99576 11.8493 5.97676 11.2033 6.04996C10.3163 6.15206 9.4907 6.44636 8.7373 6.87846L10.0392 7.10076C10.5831 7.19406 10.9494 7.71066 10.8556 8.25506C10.7726 8.74236 10.3497 9.08656 9.8712 9.08656C9.8155 9.08656 9.7589 9.08216 9.7013 9.07236L6.2111 8.47566C5.9504 8.43076 5.717 8.28426 5.5636 8.06746C5.4103 7.85116 5.3497 7.58256 5.3947 7.32086L5.9924 3.83116C6.0842 3.28726 6.594 2.92296 7.1467 3.01426C7.6906 3.10756 8.0569 3.62466 7.9631 4.16906L7.8058 5.08756C8.7737 4.54456 9.8414 4.19326 10.9758 4.06266C11.8254 3.96596 12.6496 3.99286 13.404 4.13736C15.1408 4.42836 16.7189 5.24236 17.968 6.49136C21.2815 9.80486 21.2815 15.1965 17.968 18.5109C16.3113 20.1681 14.1345 20.9963 11.9582 20.9963C9.7814 20.9963 7.6057 20.1682 5.9484 18.5109C4.6466 17.2091 3.8185 15.5695 3.5539 13.7697C3.4737 13.2228 3.8517 12.7149 4.3976 12.6349Z" fill="#808080"/>
</svg>
