<svg width="10" height="14" viewBox="0 0 10 14" fill="none" xmlns="http://www.w3.org/2000/svg">
<path d="M9.88731 3.62545L6.81046 0.548605C6.73864 0.476759 6.64062 0.435913 6.53846 0.435913H1.15385C0.517615 0.435913 0 0.953528 0 1.58976V12.4103C0 13.0465 0.517615 13.5641 1.15385 13.5641H8.84615C9.48238 13.5641 10 13.0465 10 12.4103V3.89745C10 3.79258 9.95597 3.69409 9.88731 3.62545ZM6.92308 1.74907L8.68685 3.51284H7.30769C7.09562 3.51284 6.92308 3.3403 6.92308 3.12822V1.74907ZM8.84615 12.7949H1.15385C0.941769 12.7949 0.769231 12.6223 0.769231 12.4103V1.58976C0.769231 1.37768 0.941769 1.20514 1.15385 1.20514H6.15385V3.12822C6.15385 3.76445 6.67146 4.28207 7.30769 4.28207H9.23077V12.4103C9.23077 12.6223 9.05823 12.7949 8.84615 12.7949Z" fill="white"/>
<path d="M7.30762 5.87177H2.69223C2.47982 5.87177 2.30762 6.04397 2.30762 6.25638C2.30762 6.46879 2.47982 6.641 2.69223 6.641H7.30762C7.52003 6.641 7.69223 6.46879 7.69223 6.25638C7.69223 6.04397 7.52003 5.87177 7.30762 5.87177Z" fill="white"/>
<path d="M7.30762 7.41028H2.69223C2.47982 7.41028 2.30762 7.58248 2.30762 7.79489C2.30762 8.0073 2.47982 8.17951 2.69223 8.17951H7.30762C7.52003 8.17951 7.69223 8.0073 7.69223 7.79489C7.69223 7.58248 7.52003 7.41028 7.30762 7.41028Z" fill="white"/>
<path d="M7.30762 8.94873H2.69223C2.47982 8.94873 2.30762 9.12094 2.30762 9.33335C2.30762 9.54576 2.47982 9.71796 2.69223 9.71796H7.30762C7.52003 9.71796 7.69223 9.54576 7.69223 9.33335C7.69223 9.12094 7.52003 8.94873 7.30762 8.94873Z" fill="white"/>
<path d="M5.76916 10.4872H2.69223C2.47982 10.4872 2.30762 10.6594 2.30762 10.8718C2.30762 11.0842 2.47982 11.2564 2.69223 11.2564H5.76916C5.98157 11.2564 6.15377 11.0842 6.15377 10.8718C6.15377 10.6594 5.98157 10.4872 5.76916 10.4872Z" fill="white"/>
</svg>
