<svg width="14" height="14" viewBox="0 0 14 14" fill="none" xmlns="http://www.w3.org/2000/svg">
<path d="M7.41365 3.12943C7.41365 3.23587 7.33024 3.32338 7.22411 3.33145C5.36843 3.47245 3.63905 4.26681 2.30199 5.6039C0.821941 7.08392 0.00683594 9.0449 0.00683594 11.1255V13.0364C0.00683594 13.2534 0.303957 13.3151 0.390316 13.116L1.04811 11.5996C2.23238 9.23984 4.60199 7.65437 7.20266 7.43469C7.31708 7.42503 7.41365 7.51653 7.41365 7.63136V10.3109C7.41365 10.4796 7.60956 10.5725 7.74017 10.4658L13.8033 5.51326C13.9014 5.43316 13.9013 5.28324 13.8031 5.20329L7.73994 0.265719C7.60928 0.159311 7.41365 0.252289 7.41365 0.4208V3.12943ZM8.03359 4.12868C8.14405 4.12868 8.23359 4.03914 8.23359 3.92868V2.14596C8.23359 1.97745 8.42922 1.88447 8.55989 1.99088L12.5058 5.20424C12.6039 5.2842 12.6041 5.43412 12.506 5.51422L8.56011 8.73732C8.4295 8.84401 8.23359 8.75108 8.23359 8.58243V6.78851C8.23359 6.67805 8.14405 6.58851 8.03359 6.58851H7.82362C6.26907 6.58851 4.7425 7.02562 3.409 7.85256C2.63551 8.33223 1.9497 8.92888 1.37426 9.61768C1.23986 9.77856 0.976153 9.66824 1.02591 9.4646C1.77328 6.4055 4.53751 4.12868 7.82362 4.12868H8.03359Z" fill="white"/>
</svg>
