<svg width="13" height="14" viewBox="0 0 13 14" fill="none" xmlns="http://www.w3.org/2000/svg">
<path d="M10.2012 3.95046C9.89555 4.17539 9.84179 4.59287 10.063 4.89018C10.6186 5.63692 10.9123 6.53161 10.9123 7.47778C10.9123 9.88591 8.95361 11.8427 6.54691 11.8431C4.13997 11.8429 2.18156 9.88448 2.18156 7.47778C2.1818 6.57269 2.45826 5.70626 2.99043 4.95933C3.21327 4.6321 3.49994 4.32738 3.84152 4.05533C4.31128 3.68255 4.84316 3.43022 5.4062 3.27762L4.89346 4.00152C4.67945 4.30415 4.75083 4.72347 5.05394 4.93748C5.3248 5.1295 5.68912 5.09212 5.91638 4.86486C5.94283 4.83841 5.96763 4.80944 5.99033 4.77743L7.36456 2.8364C7.46705 2.69126 7.50833 2.51083 7.47821 2.33501C7.44829 2.15947 7.34951 2.00312 7.20384 1.9002L5.26258 0.526683C4.96066 0.311964 4.54552 0.381068 4.32638 0.686928C4.11238 0.989559 4.184 1.40912 4.4871 1.62313L4.99804 1.98465C4.28046 2.18645 3.60652 2.5267 3.00572 3.00344C2.55629 3.36102 2.17762 3.76524 1.88796 4.19216C1.20129 5.15524 0.838391 6.29134 0.838343 7.47778C0.838343 10.6252 3.39902 13.1859 6.54686 13.1863C8.12076 13.1865 9.54795 12.546 10.5816 11.5124C11.6154 10.4786 12.2554 9.05196 12.2554 7.47773C12.2554 6.24118 11.87 5.06918 11.1409 4.08872C10.9192 3.79089 10.4985 3.72919 10.2012 3.95046Z" fill="white"/>
</svg>
