<svg width="5" height="12" viewBox="0 0 5 12" fill="none" xmlns="http://www.w3.org/2000/svg">
<path d="M4.36607 11.3497C4.36634 11.435 4.34974 11.5194 4.31724 11.5983C4.28474 11.6771 4.23697 11.7487 4.17668 11.809C4.11639 11.8693 4.04477 11.9171 3.96595 11.9496C3.88713 11.9821 3.80266 11.9987 3.7174 11.9984H0.639733C0.469039 11.9954 0.306348 11.9255 0.186694 11.8037C0.0670399 11.6819 -3.9777e-06 11.518 1.77003e-10 11.3473C3.97806e-06 11.1766 0.0670557 11.0127 0.186715 10.8909C0.306375 10.7692 0.46907 10.6993 0.639764 10.6963H0.985372V4.47073H0.639733C0.469039 4.46773 0.306348 4.39783 0.186694 4.27605C0.0670399 4.15428 -3.9777e-06 3.99039 1.77003e-10 3.81967C3.97806e-06 3.64895 0.0670557 3.48506 0.186715 3.36329C0.306375 3.24153 0.46907 3.17162 0.639764 3.16864H2.71834C2.80385 3.16828 2.8886 3.18478 2.96772 3.21719C3.04685 3.24961 3.11882 3.2973 3.1795 3.35754C3.24019 3.41779 3.2884 3.4894 3.32139 3.56829C3.35438 3.64718 3.37149 3.7318 3.37176 3.81731V10.6963H3.71739C3.8029 10.6966 3.88752 10.7137 3.96641 10.7467C4.0453 10.7797 4.11692 10.8279 4.17716 10.8886C4.2374 10.9492 4.2851 11.0212 4.31751 11.1003C4.34993 11.1795 4.36643 11.2642 4.36607 11.3497ZM0.985372 1.18079C0.988648 1.49509 1.1158 1.79541 1.33921 2.0165C1.56262 2.2376 1.86424 2.36162 2.17856 2.36162C2.49287 2.36163 2.7945 2.23761 3.01791 2.01653C3.24133 1.79544 3.36849 1.49513 3.37177 1.18083C3.3685 0.866528 3.24135 0.566215 3.01794 0.345119C2.79453 0.124024 2.49291 4.56702e-06 2.17859 1.26133e-10C1.86427 -4.56676e-06 1.56265 0.124006 1.33923 0.345095C1.11582 0.566184 0.988657 0.866494 0.985372 1.18079Z" fill="white"/>
</svg>
