<svg width="12" height="16" viewBox="0 0 12 16" fill="none" xmlns="http://www.w3.org/2000/svg">
<path d="M6 7.2C5.28799 7.2 4.59196 6.98886 3.99995 6.59329C3.40793 6.19772 2.94651 5.63548 2.67403 4.97766C2.40156 4.31985 2.33027 3.59601 2.46917 2.89768C2.60808 2.19934 2.95095 1.55789 3.45442 1.05442C3.95788 0.550948 4.59934 0.208081 5.29768 0.0691746C5.99601 -0.0697322 6.71985 0.00155994 7.37766 0.274035C8.03547 0.546511 8.59772 1.00793 8.99329 1.59995C9.38886 2.19197 9.6 2.88799 9.6 3.6C9.59894 4.55446 9.21932 5.46951 8.54442 6.14442C7.86951 6.81932 6.95445 7.19894 6 7.2ZM12 12.8C11.9987 11.7395 11.5769 10.7228 10.827 9.97297C10.0772 9.2231 9.06048 8.80127 8 8.8H4C2.93952 8.80127 1.92285 9.2231 1.17298 9.97297C0.423105 10.7228 0.00127029 11.7395 0 12.8L0 14C0 15.1046 0.895431 16 2 16H10C11.1046 16 12 15.1046 12 14V12.8Z" fill="white"/>
</svg>
