<svg width="14" height="14" viewBox="0 0 14 14" fill="none" xmlns="http://www.w3.org/2000/svg">
<path fill-rule="evenodd" clip-rule="evenodd" d="M1.07692 4.84615V3.41026C1.07692 2.79138 1.32246 2.19764 1.76041 1.76041C2.19764 1.32246 2.79138 1.07692 3.41026 1.07692H4.84615C5.14338 1.07692 5.38462 0.835692 5.38462 0.538462C5.38462 0.241231 5.14338 0 4.84615 0H3.41026C2.50564 0 1.63836 0.358974 0.998667 0.998667C0.358974 1.63836 0 2.50564 0 3.41026V4.84615C0 5.14338 0.241231 5.38462 0.538462 5.38462C0.835692 5.38462 1.07692 5.14338 1.07692 4.84615Z" fill="white"/>
<path fill-rule="evenodd" clip-rule="evenodd" d="M9.15394 1.07692H10.5898C11.2087 1.07692 11.8025 1.32246 12.2397 1.76041C12.6776 2.19764 12.9232 2.79138 12.9232 3.41026V4.84615C12.9232 5.14338 13.1644 5.38462 13.4616 5.38462C13.7589 5.38462 14.0001 5.14338 14.0001 4.84615V3.41026C14.0001 2.50564 13.6411 1.63836 13.0014 0.998667C12.3617 0.358974 11.4945 0 10.5898 0C9.79866 0 9.15394 0 9.15394 0C8.85671 0 8.61548 0.241231 8.61548 0.538462C8.61548 0.835692 8.85671 1.07692 9.15394 1.07692Z" fill="white"/>
<path fill-rule="evenodd" clip-rule="evenodd" d="M0 9.15385V10.5897C0 11.4944 0.358974 12.3616 0.998667 13.0013C1.63836 13.641 2.50564 14 3.41026 14H4.84615C5.14338 14 5.38462 13.7588 5.38462 13.4615C5.38462 13.1643 5.14338 12.9231 4.84615 12.9231H3.41026C2.79138 12.9231 2.19764 12.6775 1.76041 12.2396C1.32246 11.8024 1.07692 11.2086 1.07692 10.5897C1.07692 9.79857 1.07692 9.15385 1.07692 9.15385C1.07692 8.85662 0.835692 8.61539 0.538462 8.61539C0.241231 8.61539 0 8.85662 0 9.15385Z" fill="white"/>
<path fill-rule="evenodd" clip-rule="evenodd" d="M9.15394 14H10.5898C11.4945 14 12.3617 13.641 13.0014 13.0013C13.6411 12.3616 14.0001 11.4944 14.0001 10.5897C14.0001 9.79857 14.0001 9.15385 14.0001 9.15385C14.0001 8.85662 13.7589 8.61539 13.4616 8.61539C13.1644 8.61539 12.9232 8.85662 12.9232 9.15385V10.5897C12.9232 11.2086 12.6776 11.8024 12.2397 12.2396C11.8025 12.6775 11.2087 12.9231 10.5898 12.9231C9.79866 12.9231 9.15394 12.9231 9.15394 12.9231C8.85671 12.9231 8.61548 13.1643 8.61548 13.4615C8.61548 13.7588 8.85671 14 9.15394 14Z" fill="white"/>
<path fill-rule="evenodd" clip-rule="evenodd" d="M8.97437 4.48719V5.20514C8.97437 5.50237 9.2156 5.7436 9.51283 5.7436C9.81006 5.7436 10.0513 5.50237 10.0513 5.20514V4.48719C10.0513 4.18996 9.81006 3.94873 9.51283 3.94873C9.2156 3.94873 8.97437 4.18996 8.97437 4.48719Z" fill="white"/>
<path fill-rule="evenodd" clip-rule="evenodd" d="M3.94873 4.48719V5.20514C3.94873 5.50237 4.18996 5.7436 4.48719 5.7436C4.78442 5.7436 5.02565 5.50237 5.02565 5.20514V4.48719C5.02565 4.18996 4.78442 3.94873 4.48719 3.94873C4.18996 3.94873 3.94873 4.18996 3.94873 4.48719Z" fill="white"/>
<path fill-rule="evenodd" clip-rule="evenodd" d="M6.82064 7.38481V5.5641C6.82064 5.26687 7.06187 5.02563 7.3591 5.02563C7.65633 5.02563 7.89756 5.26687 7.89756 5.5641V7.71794C7.89756 7.92184 7.78197 8.10851 7.59961 8.19969L6.88166 8.55866C6.61602 8.69148 6.29223 8.58379 6.15941 8.31743C6.02659 8.05179 6.13428 7.72799 6.40064 7.59517L6.82064 7.38481Z" fill="white"/>
<path fill-rule="evenodd" clip-rule="evenodd" d="M9.13232 9.13231C9.22996 9.03467 9.36422 8.97437 9.51283 8.97437C9.81006 8.97437 10.0513 9.2156 10.0513 9.51283C10.0513 9.66144 9.99099 9.7957 9.89335 9.89334C9.79571 9.99098 9.89335 9.89406 9.89263 9.89478C8.29519 11.4922 5.70483 11.4922 4.1074 9.89478C4.10668 9.89406 4.10668 9.89334 4.10668 9.89334C4.00904 9.7957 3.94873 9.66144 3.94873 9.51283C3.94873 9.2156 4.18996 8.97437 4.48719 8.97437C4.63581 8.97437 4.77006 9.03467 4.8677 9.13231C4.96535 9.22996 4.86842 9.13231 4.86914 9.13303C6.04586 10.3097 7.95417 10.3097 9.13088 9.13303C9.1316 9.13231 9.13232 9.13231 9.13232 9.13231Z" fill="white"/>
</svg>
