<svg width="8" height="13" viewBox="0 0 8 13" fill="none" xmlns="http://www.w3.org/2000/svg">
<path d="M3.70365 9.25914C3.14811 9.25914 2.77774 8.88877 2.77774 8.33322C2.87033 7.12954 3.51847 6.11103 4.44439 5.3703C4.99993 4.81475 5.55548 4.2592 5.55548 3.70365C5.55548 2.68515 4.72216 1.85183 3.70365 1.85183C2.68515 1.85183 1.85183 2.68515 1.85183 3.70365C1.85183 4.2592 1.48146 4.62957 0.925914 4.62957C0.370365 4.62957 0 4.2592 0 3.70365C0 1.66664 1.66664 0 3.70365 0C5.74066 0 7.40731 1.66664 7.40731 3.70365C7.31472 4.90734 6.66658 5.92585 5.74067 6.66658C5.18512 7.22213 4.62957 7.77768 4.62957 8.33322C4.62957 8.88877 4.2592 9.25914 3.70365 9.25914Z" fill="white"/>
<path d="M3.70375 12.0369C4.21511 12.0369 4.62966 11.6223 4.62966 11.111C4.62966 10.5996 4.21511 10.1851 3.70375 10.1851C3.19238 10.1851 2.77783 10.5996 2.77783 11.111C2.77783 11.6223 3.19238 12.0369 3.70375 12.0369Z" fill="white"/>
</svg>
