<svg width="14" height="15" viewBox="0 0 14 15" fill="none" xmlns="http://www.w3.org/2000/svg">
<path d="M0.605452 13.8834C0.465938 13.7904 0.419434 13.6043 0.419434 13.4183L1.83798 10.0466C0.117305 7.20981 1.0474 3.48944 3.88418 1.81528C6.72096 0.14111 10.4413 1.0247 12.162 3.86148C13.8827 6.69826 12.9526 10.4186 10.1158 12.1393C8.25561 13.2554 5.88388 13.3019 4.02369 12.1858L1.117 13.9764C0.88448 14.0229 0.744966 13.9764 0.605452 13.8834ZM4.02369 11.2092C4.1167 11.2092 4.20971 11.2557 4.25622 11.3022C6.67445 12.8369 9.83677 12.0928 11.3249 9.72106C12.8131 7.34932 12.1155 4.14051 9.74376 2.65236C7.37202 1.16421 4.20971 1.76877 2.67506 4.18701C1.60545 5.86118 1.60545 8.04689 2.67506 9.72106C2.72156 9.81407 2.76807 9.95358 2.72156 10.0466L1.44253 12.7673L3.79117 11.2092H4.02369Z" fill="white" stroke="white" stroke-width="0.2"/>
</svg>
