<svg width="21" height="21" viewBox="0 0 21 21" fill="none" xmlns="http://www.w3.org/2000/svg">
<path d="M12.21 6.95215C12.362 7.37384 12.7256 7.67672 13.1572 7.75684L13.3457 7.77734L18.3828 7.93848L14.4023 11.0293C14.0482 11.3043 13.8725 11.7444 13.9297 12.1797L13.9688 12.3652L15.3721 17.2061L11.2021 14.375L11.0371 14.2803C10.6977 14.1187 10.3023 14.1187 9.96289 14.2803L9.79785 14.375L5.62695 17.2061L7.03125 12.3652C7.15608 11.9348 7.04027 11.4757 6.73828 11.1572L6.59766 11.0293L2.61621 7.93848L7.6543 7.77734C8.10248 7.76302 8.50338 7.51093 8.71289 7.125L8.79004 6.95215L10.5 2.21094L12.21 6.95215Z" stroke="#808080" stroke-width="1.5"/>
</svg>
