<svg width="19" height="18" viewBox="0 0 19 18" fill="none" xmlns="http://www.w3.org/2000/svg">
<g clip-path="url(#clip0_3171_1816)">
<path d="M7.89893 12L8.1958 12.0146C8.78437 12.0738 9.34282 12.3056 9.80029 12.6807L10.02 12.8799C10.5122 13.3721 10.8163 14.0175 10.8853 14.7041L10.8999 15.001V17.25H1.1499V15.001C1.15074 14.3047 1.39298 13.6334 1.83057 13.0996L2.02979 12.8799C2.52197 12.3877 3.16744 12.0836 3.854 12.0146L4.15088 12H7.89893ZM14.6489 9L14.9458 9.01465C15.5344 9.07376 16.0928 9.30564 16.5503 9.68066L16.77 9.87988C17.2622 10.3721 17.5663 11.0175 17.6353 11.7041L17.6499 12.001V14.25H13.8511C13.7291 13.2928 13.3785 12.3763 12.8247 11.5801L12.6812 11.3818C12.1242 10.6468 11.408 10.0556 10.5933 9.64551C10.7414 9.43986 10.8752 9.22418 10.9946 9H14.6489ZM5.51318 3.80078C5.95851 3.71226 6.41805 3.74031 6.84717 3.88184L7.02979 3.9502C7.44933 4.12406 7.81509 4.40355 8.09326 4.75977L8.20752 4.91699C8.45975 5.29457 8.60962 5.73002 8.64307 6.18066L8.6499 6.375C8.64891 7.07088 8.37245 7.73839 7.88037 8.23047C7.3881 8.72274 6.7201 8.99825 6.02393 8.99902C5.56997 8.99885 5.12509 8.88173 4.73193 8.65918L4.56689 8.55762C4.18903 8.30513 3.88358 7.95962 3.68018 7.55566L3.6001 7.37988C3.42627 6.96022 3.36427 6.50336 3.41943 6.05469L3.45068 5.86328C3.53931 5.41774 3.74145 5.00356 4.03662 4.66113L4.16846 4.51855C4.48962 4.19739 4.88816 3.96645 5.32373 3.8457L5.51318 3.80078ZM13.0132 0.800781C13.4585 0.712256 13.9181 0.740307 14.3472 0.881836L14.5298 0.950195C15.0093 1.1489 15.4192 1.48544 15.7075 1.91699C15.9597 2.29457 16.1096 2.73002 16.1431 3.18066L16.1499 3.375C16.149 3.98378 15.9367 4.5703 15.5542 5.03711L15.3804 5.23047C14.8881 5.72274 14.2201 5.99825 13.5239 5.99902C13.07 5.99885 12.6251 5.88173 12.2319 5.65918L12.0669 5.55762C11.689 5.30513 11.3836 4.95962 11.1802 4.55566L11.1001 4.37988C10.9263 3.96022 10.8643 3.50336 10.9194 3.05469L10.9507 2.86328C11.0393 2.41774 11.2415 2.00356 11.5366 1.66113L11.6685 1.51855C11.9896 1.19739 12.3882 0.966448 12.8237 0.845703L13.0132 0.800781Z" stroke="#808080" stroke-width="1.5"/>
</g>
<defs>
<clipPath id="clip0_3171_1816">
<rect width="18" height="18" fill="white" transform="translate(0.399902)"/>
</clipPath>
</defs>
</svg>
