<svg width="20" height="19" viewBox="0 0 20 19" fill="none" xmlns="http://www.w3.org/2000/svg">
<g clip-path="url(#clip0_3171_1820)">
<path d="M9.8647 6.59303C9.13953 6.53207 8.4492 6.85111 7.75095 7.55015C6.45737 8.84453 6.45737 10.1563 7.75095 11.4491C8.13174 11.8307 8.73182 12.3532 9.53537 12.407C10.3001 12.4577 11.0031 12.0967 11.6491 11.4491C12.9427 10.1555 12.9419 8.84294 11.6491 7.55015C11.2683 7.16857 10.6682 6.65399 9.8647 6.59224V6.59303ZM10.5297 10.3305C10.2906 10.5696 9.92249 10.849 9.65728 10.8284C9.44987 10.8126 9.18545 10.6448 8.87116 10.3305C8.24812 9.70744 8.16103 9.38049 8.87116 8.66957C9.10153 8.43919 9.43007 8.17082 9.71112 8.17082C9.7222 8.17082 9.73328 8.17082 9.74357 8.17161C9.95099 8.18744 10.2154 8.35528 10.5297 8.66957C11.1527 9.29261 11.2398 9.61957 10.5297 10.3305Z" fill="#808080"/>
<path d="M18.4035 9.46361C18.4083 8.50886 18.0457 7.35619 16.3682 7.04902C16.2811 6.88277 16.1853 6.71573 16.08 6.5479C16.9255 5.37702 16.8606 4.29086 15.8837 3.31394C14.906 2.33544 13.8198 2.27131 12.6481 3.11998C12.4827 3.01548 12.3172 2.92048 12.1518 2.83498C11.8493 1.16298 10.7078 0.79248 9.75538 0.79248C8.41747 0.79248 7.56168 1.49786 7.3123 2.86981C7.14763 2.95611 6.98138 3.0519 6.81434 3.1564C5.64822 2.31406 4.56126 2.38611 3.57405 3.37173C2.59001 4.35656 2.51876 5.44431 3.35872 6.61044C3.25343 6.77827 3.15684 6.94531 3.06897 7.11156C1.70018 7.36173 1.00351 8.17635 0.996384 9.53644C0.991634 10.4912 1.35422 11.6439 3.03176 11.951C3.11884 12.1173 3.21463 12.2843 3.32072 12.4521C2.47443 13.623 2.53934 14.7092 3.51626 15.6861C4.49397 16.6646 5.58092 16.7287 6.7518 15.8801C6.91726 15.9846 7.08272 16.0796 7.24817 16.1651C7.55059 17.8371 8.69217 18.2076 9.64455 18.2076C11.007 18.2076 11.8383 17.5022 12.0876 16.1302C12.2523 16.0439 12.4185 15.9481 12.5856 15.8436C13.7501 16.6836 14.8339 16.61 15.8251 15.6283C16.8163 14.6466 16.8812 13.5557 16.0412 12.3888C16.1465 12.221 16.2431 12.0539 16.331 11.8885C17.6998 11.6383 18.3964 10.8237 18.4035 9.46361ZM15.7364 10.3716C15.4483 10.3962 15.1965 10.5767 15.0801 10.8411C14.921 11.2021 14.6978 11.5805 14.4159 11.9645C14.1927 12.2693 14.2164 12.6904 14.4721 12.9691C15.3216 13.8922 15.0366 14.178 14.7057 14.5089C14.3613 14.8541 14.0882 15.1264 13.1675 14.2746C12.8888 14.0181 12.4684 13.9943 12.162 14.2176C11.7797 14.4978 11.4028 14.7203 11.041 14.8778C10.7758 14.9942 10.5953 15.2459 10.57 15.5357C10.4766 16.6203 10.095 16.6226 9.65405 16.6242C9.20676 16.6242 8.84813 16.629 8.7658 15.5745C8.74284 15.2808 8.55918 15.0243 8.28842 14.9087C7.92901 14.7543 7.55455 14.535 7.17613 14.2556C7.03601 14.1519 6.87055 14.1012 6.70588 14.1012C6.51272 14.1012 6.32034 14.1716 6.16913 14.311C5.23576 15.1715 4.9563 14.8905 4.63409 14.5675C4.3103 14.2437 4.03084 13.9634 4.88901 13.0316C5.1463 12.7522 5.16926 12.3302 4.94284 12.0246C4.66101 11.6439 4.44013 11.2686 4.28576 10.9108C4.17017 10.6408 3.91368 10.4571 3.62155 10.4342C2.57259 10.3503 2.57418 9.99481 2.57655 9.54515C2.57893 9.08519 2.58051 8.72181 3.66034 8.6284C3.94851 8.60386 4.20026 8.42336 4.31663 8.15894C4.47655 7.79715 4.6998 7.41873 4.98084 7.03477C5.20409 6.72998 5.18034 6.30881 4.92463 6.03015C4.07518 5.10786 4.36097 4.82206 4.69109 4.49115C5.03547 4.14677 5.30859 3.87444 6.2293 4.72469C6.50797 4.98198 6.92834 5.00494 7.23392 4.78169C7.61709 4.50144 7.99393 4.27977 8.35572 4.12144C8.62092 4.00506 8.80142 3.75331 8.82676 3.46356C8.92018 2.37898 9.30176 2.37661 9.74272 2.37502C10.1963 2.37819 10.5486 2.37027 10.631 3.42477C10.6539 3.71848 10.8376 3.97498 11.1083 4.09056C11.4678 4.24494 11.8422 4.46423 12.2206 4.74369C12.5254 4.96852 12.9482 4.94556 13.2268 4.68906C14.1602 3.82852 14.4389 4.10956 14.7619 4.43256C15.0857 4.75636 15.3659 5.03661 14.507 5.9684C14.2497 6.24786 14.2267 6.67061 14.4523 6.9754C14.7342 7.35619 14.9551 7.73144 15.1094 8.08927C15.225 8.35923 15.4815 8.5429 15.7736 8.56586C16.8226 8.64977 16.821 9.00523 16.8186 9.4549C16.8163 9.91486 16.8147 10.2782 15.7348 10.3716H15.7364Z" fill="#808080"/>
</g>
<defs>
<clipPath id="clip0_3171_1820">
<rect width="19" height="19" fill="white" transform="translate(0.199951)"/>
</clipPath>
</defs>
</svg>
